<svg width="20" height="20" viewBox="0 0 20 20" fill="none" xmlns="http://www.w3.org/2000/svg">
<path d="M6.45962 11.6959L3.62061 5.51202C1.95828 6.85465 0.997869 8.84548 1 10.9442C1 14.8527 4.26561 18.021 8.29281 18.021C8.63901 18.0209 8.98478 17.9972 9.32755 17.95L6.4979 11.7818C6.48543 11.7526 6.47152 11.7251 6.45962 11.6959ZM8.29337 6.63308e-06C7.38418 -0.000966414 6.47818 0.105121 5.59534 0.315998L7.25693 3.93985C7.60021 3.89272 7.94642 3.86902 8.29311 3.86884C12.3209 3.86884 15.5842 7.03634 15.5842 10.944C15.5868 13.0431 14.6264 15.0345 12.9639 16.3775L14.626 20C17.6109 18.0323 19.5714 14.7115 19.5714 10.9445C19.5711 4.90042 14.5214 6.63308e-06 8.29337 6.63308e-06ZM18.4493 18.4515H18.5588V18.7944H18.6329V18.4504H18.7424V18.3895H18.4493V18.4515ZM19.0055 18.6568L18.8961 18.3906H18.8189V18.7944H18.893V18.5385L18.9837 18.757H19.0274L19.1181 18.5385V18.7944H19.1927V18.3909H19.1156L19.0055 18.6568Z" fill="white"/>
</svg>
