<svg width="20" height="20" viewBox="0 0 20 20" fill="none" xmlns="http://www.w3.org/2000/svg">
<path d="M9.7699 19L13.3679 7.92676H6.17188L9.7699 19Z" fill="#E24329"/>
<path d="M9.76929 19L6.17126 7.92676H1.12891L9.76929 19Z" fill="#FC6D26"/>
<path d="M1.12981 7.92676L0.0364651 11.2919C-0.0121485 11.4415 -0.0121552 11.6026 0.036446 11.7522C0.0850472 11.9019 0.179761 12.0322 0.307014 12.1247L9.7702 19.0001L1.12974 7.92683L1.12981 7.92676Z" fill="#FCA326"/>
<path d="M1.12891 7.92676H6.17126L4.00435 1.25736C3.89283 0.914174 3.40734 0.91425 3.2959 1.25736L1.12891 7.92676Z" fill="#E24329"/>
<path d="M9.76961 19L13.3676 7.92676H18.41L9.76961 19Z" fill="#FC6D26"/>
<path d="M18.4099 7.92676L19.5033 11.2919C19.5519 11.4415 19.5519 11.6027 19.5033 11.7523C19.4546 11.9019 19.3599 12.0322 19.2326 12.1247L9.76953 19.0001L18.4099 7.92683V7.92676Z" fill="#FCA326"/>
<path d="M18.4116 7.92676H13.3691L15.5361 1.25736C15.6476 0.914174 16.1331 0.91425 16.2446 1.25736L18.4116 7.92676Z" fill="#E24329"/>
</svg>
