<svg width="20" height="20" viewBox="0 0 20 20" fill="none" xmlns="http://www.w3.org/2000/svg">
<path fill-rule="evenodd" clip-rule="evenodd" d="M10 18.75C14.8325 18.75 18.75 14.8325 18.75 10C18.75 5.16751 14.8325 1.25 10 1.25C5.16751 1.25 1.25 5.16751 1.25 10C1.25 14.8325 5.16751 18.75 10 18.75Z" stroke="#FF671D" stroke-width="1.5" stroke-linecap="round" stroke-linejoin="round"/>
<path d="M12.5005 6.24952H8.99133C8.58689 6.21723 8.18864 6.36389 7.90176 6.65078C7.61487 6.93767 7.4682 7.33592 7.50049 7.74035C7.50049 9.37452 12.5005 10.6245 12.5005 12.2587C12.5078 12.6563 12.3531 13.0397 12.0719 13.3209C11.7907 13.6021 11.4072 13.7568 11.0097 13.7495H7.50049" stroke="#FF671D" stroke-width="1.5" stroke-linecap="round" stroke-linejoin="round"/>
<path d="M10 6.25V4.375" stroke="#FF671D" stroke-width="1.5" stroke-linecap="round" stroke-linejoin="round"/>
<path d="M10 15.625V13.75" stroke="#FF671D" stroke-width="1.5" stroke-linecap="round" stroke-linejoin="round"/>
</svg>
