<svg width="15" height="20" viewBox="0 0 15 20" fill="none" xmlns="http://www.w3.org/2000/svg">
<g id="Jenkins_logo 2" clip-path="url(#clip0_40966_6452)">
<g id="g10">
<g id="g3393">
<path id="path22" fill-rule="evenodd" clip-rule="evenodd" d="M14.2411 9.64255C14.2411 13.6032 11.1021 16.814 7.22991 16.814C3.35778 16.814 0.21875 13.6032 0.21875 9.64255C0.21875 5.68182 3.35778 2.471 7.22991 2.471C11.1021 2.471 14.2411 5.68182 14.2411 9.64255Z" fill="#D33833"/>
<path id="path24" d="M0.50288 11.4185C0.50288 11.4185 -0.00468212 3.93985 6.88638 3.72615L6.40564 2.92487L2.66634 4.18023L1.59795 5.40884L0.663136 7.19842L0.128906 9.28176L0.289163 10.6706" fill="#EF3D3A"/>
<path id="path26" d="M2.42695 4.75002C1.19682 6.00867 0.435603 7.7465 0.435603 9.66901C0.435603 11.5911 1.19682 13.3292 2.42695 14.5876C3.65767 15.846 5.35378 16.6225 7.22891 16.6225C9.10409 16.6225 10.8003 15.846 12.0309 14.5876C13.261 13.3292 14.0224 11.5911 14.0224 9.66901C14.0224 7.7465 13.261 6.00867 12.0309 4.75002C10.8003 3.49185 9.10409 2.71532 7.22891 2.71516C5.35378 2.71532 3.65767 3.49185 2.42695 4.75002ZM2.11557 14.892C0.808229 13.555 0 11.7072 0 9.66901C0 7.63047 0.808229 5.78287 2.11557 4.44577C3.4226 3.10843 5.23187 2.27951 7.22891 2.27975C9.22596 2.27951 11.0354 3.10843 12.3422 4.44577C13.6497 5.78287 14.458 7.63063 14.4579 9.66901C14.458 11.7072 13.6497 13.555 12.3422 14.892C11.0354 16.2293 9.22596 17.0581 7.22891 17.0581C5.23187 17.0581 3.4226 16.2293 2.11557 14.892Z" fill="#231F20"/>
<path id="path28" fill-rule="evenodd" clip-rule="evenodd" d="M10.1806 9.6821L9.11217 9.84236L7.66985 10.0026L6.73498 10.0293L5.8269 10.0026L5.13241 9.78891L4.51809 9.1212L4.03732 7.75902L3.93049 7.46519L3.28946 7.25157L2.91552 6.63723L2.64844 5.75582L2.94228 4.98122L3.63668 4.74084L4.19757 5.00798L4.46472 5.59556L4.78523 5.54212L4.89203 5.40862L4.78523 4.79428L4.75847 4.01968L4.91873 2.95133L4.91247 2.34107L5.3995 1.56247L6.25421 0.948126L7.74998 0.3071L9.40592 0.547485L10.8482 1.58915L11.516 2.6575L11.9433 3.4321L12.0502 5.35518L11.7296 7.01119L11.1421 8.48018L10.5812 9.25478" fill="#F0D6B7"/>
<path id="path30" fill-rule="evenodd" clip-rule="evenodd" d="M9.2723 14.3028L5.4528 14.463V15.1041L5.77331 17.3476L5.61305 17.5347L2.94216 16.6265L2.75514 16.306L2.48805 13.2879L1.87382 11.4716L1.74023 11.0443L3.87693 9.57529L4.54472 9.30814L5.13229 10.0293L5.63975 10.4834L6.22741 10.6703L6.49447 10.7505L6.81498 12.1393L7.05536 12.4331L7.66972 12.2194L7.24232 13.0475L9.56605 14.1425L9.2723 14.3028Z" fill="#335061"/>
<path id="path32" fill-rule="evenodd" clip-rule="evenodd" d="M2.94088 4.98136L3.63527 4.74098L4.19616 5.00812L4.46331 5.5957L4.78382 5.54226L4.86395 5.22175L4.7037 4.60748L4.86395 3.13841L4.73036 2.33713L5.21113 1.77623L6.2528 0.948267L5.95898 0.547626L4.48998 1.26878L3.87565 1.74955L3.52844 2.49739L2.99424 3.21854L2.83398 4.07327L2.94088 4.98136Z" fill="#6D6B6D"/>
<path id="path34" fill-rule="evenodd" clip-rule="evenodd" d="M4.03809 2.47048C4.03809 2.47048 4.43873 1.48226 6.0413 1.00149C7.64386 0.520721 6.12142 0.654214 6.12142 0.654214L4.38537 1.322L3.71758 1.98971L3.42383 2.52393L4.03809 2.47048Z" fill="#DCD9D8"/>
<path id="path36" fill-rule="evenodd" clip-rule="evenodd" d="M3.23463 4.79451C3.23463 4.79451 2.67373 2.92479 4.81049 2.65773L4.73036 2.33721L3.26139 2.68449L2.83398 4.07335L2.94088 4.98145L3.23463 4.79451Z" fill="#DCD9D8"/>
<path id="path38" fill-rule="evenodd" clip-rule="evenodd" d="M4.08984 7.2782L4.43956 6.93934C4.43956 6.93934 4.59741 6.95769 4.62407 7.14463C4.65074 7.33165 4.73087 9.01434 5.87936 9.92251C5.98412 10.0054 5.02472 9.78886 5.02472 9.78886L4.16997 8.45344" fill="#F7E4CD"/>
<path id="path40" fill-rule="evenodd" clip-rule="evenodd" d="M9.00523 6.77051C9.00523 6.77051 9.06749 5.96089 9.28552 6.02315C9.50355 6.08541 9.50355 6.30344 9.50355 6.30344C9.50355 6.30344 8.97406 6.64599 9.00523 6.77051Z" fill="#F7E4CD"/>
<path id="path42" d="M11.2213 3.80624C11.2213 3.80624 10.7811 3.89919 10.7405 4.28701C10.7 4.67491 11.2213 4.36713 11.3014 4.34045" fill="#F7E4CD"/>
<path id="path44" d="M7.99 3.83297C7.99 3.83297 7.40234 3.9131 7.40234 4.28698C7.40234 4.66094 8.07015 4.63425 8.25709 4.474" fill="#F7E4CD"/>
<path id="path46" fill-rule="evenodd" clip-rule="evenodd" d="M4.35715 5.56882C4.35715 5.56882 3.34215 4.95448 3.23536 5.54214C3.12853 6.12972 2.88808 6.55712 3.39561 7.17139L3.0484 7.06458L2.72789 6.23661L2.62109 5.43533L3.23536 4.79422L3.92981 4.84767L4.33045 5.16818L4.35715 5.56882Z" fill="#F7E4CD"/>
<path id="path48" fill-rule="evenodd" clip-rule="evenodd" d="M4.83769 3.88623C4.83769 3.88623 5.29176 1.53583 7.58881 1.08174C9.47993 0.707945 10.4734 1.16187 10.8473 1.58919C10.8473 1.58919 9.16463 -0.41393 7.56205 0.200333C5.95949 0.814676 4.78433 1.93647 4.81099 2.65754C4.85647 3.88575 4.83769 3.88623 4.83769 3.88623Z" fill="#F7E4CD"/>
<path id="path50" fill-rule="evenodd" clip-rule="evenodd" d="M11.0357 1.85638C11.0357 1.85638 10.2611 1.8297 10.2344 2.52417C10.2344 2.52417 10.2343 2.63098 10.2877 2.73779C10.2877 2.73779 10.9022 2.04332 11.276 2.41728" fill="#F7E4CD"/>
<path id="path52" fill-rule="evenodd" clip-rule="evenodd" d="M7.6423 2.81012C7.6423 2.81012 7.50896 1.74417 6.60016 2.36388C6.01257 2.76453 6.06603 3.32542 6.17282 3.43223C6.27965 3.53912 6.2506 3.75427 6.33193 3.60659C6.41321 3.45892 6.38645 2.97815 6.68029 2.84465C6.97411 2.71108 7.45575 2.56188 7.6423 2.81012Z" fill="#F7E4CD"/>
<path id="path54" fill-rule="evenodd" clip-rule="evenodd" d="M5.13229 10.0294L2.62164 11.1512C2.62164 11.1512 3.66331 15.2912 3.12908 16.5732L2.75514 16.4397L2.72844 14.8639L2.03408 11.8724L1.74023 11.0444L4.3577 9.28166L5.13229 10.0294Z" fill="#49728B"/>
<path id="path56" fill-rule="evenodd" clip-rule="evenodd" d="M5.3902 12.3193L5.74639 12.7539V14.3564H5.31899C5.31899 14.3564 5.26562 13.2347 5.26562 13.1011C5.26562 12.9675 5.31899 12.4867 5.31899 12.4867" fill="#49728B"/>
<path id="path58" fill-rule="evenodd" clip-rule="evenodd" d="M5.39919 14.5966L4.19727 14.65L4.54454 14.8904L5.39919 15.0239" fill="#49728B"/>
<path id="path60" fill-rule="evenodd" clip-rule="evenodd" d="M9.51172 14.3295L10.4999 14.3028L10.7403 16.7601L9.72534 16.8936L9.51172 14.3295Z" fill="#335061"/>
<path id="path62" fill-rule="evenodd" clip-rule="evenodd" d="M9.7793 14.3296L11.275 14.2495C11.275 14.2495 11.8893 12.7003 11.8893 12.6202C11.8893 12.5401 12.4235 10.3766 12.4235 10.3766L11.2216 9.12134L10.9812 8.90763L10.3402 9.54866V12.0326L9.7793 14.3296Z" fill="#335061"/>
<path id="path64" fill-rule="evenodd" clip-rule="evenodd" d="M10.4465 14.1425L9.51172 14.3294L9.64521 15.0773C9.99241 15.2376 10.5801 14.8102 10.5801 14.8102" fill="#49728B"/>
<path id="path66" fill-rule="evenodd" clip-rule="evenodd" d="M10.4746 9.46856L12.3442 10.8574L12.3977 10.2164L10.9821 8.90766L10.4746 9.46856Z" fill="#49728B"/>
<path id="path68" fill-rule="evenodd" clip-rule="evenodd" d="M6.32662 19.5918L5.77364 17.3479L5.49861 15.6922L5.45312 14.4633L7.95591 14.33L9.51301 14.3298L9.37143 17.1345L9.61181 19.298L9.58513 19.6986L7.55527 19.8589L6.32662 19.5918Z" fill="white"/>
<path id="path70" fill-rule="evenodd" clip-rule="evenodd" d="M9.16644 14.303C9.16644 14.303 9.03295 17.0808 9.43359 19.0572C9.43359 19.0572 8.6323 19.5647 7.45703 19.6982L9.70065 19.6181L9.96772 19.4579L9.64721 15.0776L9.56708 14.1426" fill="#DCD9D8"/>
<path id="path72" fill-rule="evenodd" clip-rule="evenodd" d="M10.7859 16.5464L11.8276 16.2526L13.804 16.1457L14.0978 15.2377L13.5636 13.6618L12.9494 13.5816L12.0946 13.8487L11.2746 14.2491L10.8393 14.1692L10.5 14.3025" fill="white"/>
<path id="path74" fill-rule="evenodd" clip-rule="evenodd" d="M10.7676 16.0123C10.7676 16.0123 11.462 15.6919 11.5689 15.7186L11.2751 14.2495L11.6223 14.116C11.6223 14.116 11.8627 15.5049 11.8627 15.6651C11.8627 15.6651 13.3584 15.7453 13.4919 15.7453C13.4919 15.7453 13.8124 15.1309 13.7323 14.4899L14.0262 15.3446L14.0528 15.8254L13.6255 16.4664L13.1447 16.5732L12.3435 16.5465L12.0764 16.1994L11.1415 16.3329L10.8477 16.4397" fill="#DCD9D8"/>
<path id="path76" d="M9.71755 14.1162L9.12997 12.6204L8.51562 11.739C8.51562 11.739 8.64912 11.3651 8.83614 11.3651C9.02316 11.3651 9.45048 11.3651 9.45048 11.3651L10.0381 11.5788L9.9847 12.567L9.71755 14.1162Z" fill="white"/>
<path id="path78" fill-rule="evenodd" clip-rule="evenodd" d="M9.83288 13.6083C9.83288 13.6083 9.08497 12.1661 9.08497 11.9524C9.08497 11.9524 9.21846 11.6319 9.40548 11.712C9.5925 11.7922 9.99314 12.0058 9.99314 12.0058V11.4983L9.08497 11.3113L8.4707 11.3914L9.51237 13.8487L9.72599 13.8755" fill="#DCD9D8"/>
<path id="path80" d="M6.56724 10.0831L5.8273 10.0026L5.13281 9.78892V10.0293L5.47214 10.4035L6.5405 10.8843" fill="white"/>
<path id="path82" fill-rule="evenodd" clip-rule="evenodd" d="M5.3731 10.1631C5.3731 10.1631 6.20114 10.5104 6.46823 10.4303L6.4948 10.7505L5.74707 10.5906L5.29297 10.27L5.3731 10.1631Z" fill="#DCD9D8"/>
<path id="path84" fill-rule="evenodd" clip-rule="evenodd" d="M10.7842 11.4561C10.331 11.4428 9.92158 11.3889 9.56309 11.2878C9.58745 11.1408 9.54186 10.9966 9.57848 10.8908C9.67839 10.8188 9.84586 10.8199 9.9969 10.803C9.8663 10.7388 9.6828 10.7134 9.53208 10.7505C9.52856 10.6485 9.4828 10.5853 9.45508 10.5055C9.70989 10.4145 10.3114 9.81831 10.6498 10.0157C10.811 10.1097 10.8795 10.646 10.892 10.9069C10.9024 11.1232 10.8724 11.3415 10.7842 11.4561Z" fill="#D33833"/>
<path id="path86" d="M10.7842 11.4561C10.331 11.4428 9.92158 11.3889 9.56309 11.2878C9.58745 11.1408 9.54186 10.9966 9.57848 10.8908C9.67839 10.8188 9.84586 10.8199 9.9969 10.803C9.8663 10.7388 9.6828 10.7134 9.53208 10.7505C9.52856 10.6485 9.4828 10.5853 9.45508 10.5055C9.70989 10.4145 10.3114 9.81831 10.6498 10.0157C10.811 10.1097 10.8795 10.646 10.892 10.9069C10.9024 11.1232 10.8724 11.3415 10.7842 11.4561Z" stroke="#D33833" stroke-width="0.232301"/>
<path id="path88" fill-rule="evenodd" clip-rule="evenodd" d="M8.61679 10.7149C8.61558 10.7492 8.61414 10.7838 8.61278 10.8184C8.47127 10.9113 8.24283 10.9102 8.08754 10.9883C8.31646 10.9983 8.49667 11.0535 8.6526 11.1312C8.64916 11.2176 8.64587 11.3039 8.64251 11.3903C8.38313 11.5678 8.14619 11.8322 7.84081 11.9988C7.69642 12.0775 7.18967 12.2801 7.03605 12.2443C6.94913 12.2241 6.9413 12.1163 6.90656 12.0146C6.83254 11.7969 6.66211 11.4504 6.64724 11.1226C6.62831 10.7087 6.58652 10.0149 7.03261 10.1002C7.3925 10.1689 7.81107 10.3346 8.0897 10.4869C8.25997 10.58 8.35845 10.6951 8.61679 10.7149Z" fill="#D33833"/>
<path id="path90" d="M8.61679 10.7149C8.61558 10.7492 8.61414 10.7838 8.61278 10.8184C8.47127 10.9113 8.24283 10.9102 8.08754 10.9883C8.31646 10.9983 8.49667 11.0535 8.6526 11.1312C8.64916 11.2176 8.64587 11.3039 8.64251 11.3903C8.38313 11.5678 8.14619 11.8322 7.84081 11.9988C7.69642 12.0775 7.18967 12.2801 7.03605 12.2443C6.94913 12.2241 6.9413 12.1163 6.90656 12.0146C6.83254 11.7969 6.66211 11.4504 6.64724 11.1226C6.62831 10.7087 6.58652 10.0149 7.03261 10.1002C7.3925 10.1689 7.81107 10.3346 8.0897 10.4869C8.25997 10.58 8.35845 10.6951 8.61679 10.7149Z" stroke="#D33833" stroke-width="0.232301"/>
<path id="path92" fill-rule="evenodd" clip-rule="evenodd" d="M8.87428 11.2091C8.8347 10.9836 8.78895 10.9193 8.80666 10.7226C9.40802 10.3216 9.52092 11.4113 8.87428 11.2091Z" fill="#D33833"/>
<path id="path94" d="M8.87428 11.2091C8.8347 10.9836 8.78895 10.9193 8.80666 10.7226C9.40802 10.3216 9.52092 11.4113 8.87428 11.2091Z" stroke="#D33833" stroke-width="0.232301"/>
<path id="path96" fill-rule="evenodd" clip-rule="evenodd" d="M9.74505 11.3916C9.74505 11.3916 9.55803 11.1245 9.69161 11.0443C9.82518 10.9642 9.95875 11.0444 10.0389 10.9108C10.119 10.7773 10.0389 10.6971 10.0656 10.5369C10.0922 10.3766 10.2259 10.3499 10.3594 10.3232C10.4929 10.2965 10.8669 10.243 10.9203 10.3766L10.76 9.89585L10.4395 9.78904L9.42454 10.3766L9.37109 10.6704V11.258" fill="#EF3D3A"/>
<path id="path98" fill-rule="evenodd" clip-rule="evenodd" d="M6.94093 12.2729C6.90885 11.8561 6.87489 11.4398 6.83711 11.0234C6.78058 10.4016 6.98647 10.5101 7.52546 10.5101C7.60778 10.5101 8.03234 10.6083 8.06271 10.6704C8.20838 10.9679 7.81912 10.9018 8.2305 11.1261C8.57778 11.3155 9.19124 11.0112 9.05093 10.5902C8.97241 10.4967 8.6418 10.5611 8.52329 10.4996C8.31463 10.3915 8.10598 10.2833 7.8973 10.1751C7.63182 10.0374 7.01824 9.83656 6.73519 10.029C6.01802 10.5168 6.78046 11.7354 7.0363 12.2442" fill="#EF3D3A"/>
<path id="path100" fill-rule="evenodd" clip-rule="evenodd" d="M7.64247 2.80997C6.91449 2.64042 6.55276 3.11462 6.33209 3.60645C6.13506 3.55869 6.21346 3.29074 6.26323 3.1542C6.39354 2.79587 6.91866 2.31886 7.34772 2.38353C7.53236 2.41133 7.78222 2.58016 7.64247 2.80997Z" fill="#231F20"/>
<path id="path102" fill-rule="evenodd" clip-rule="evenodd" d="M11.191 3.63874C11.2025 3.63922 11.2141 3.63962 11.2255 3.6401C11.39 3.98184 11.5324 4.34386 11.74 4.64555C11.6009 4.96934 10.6872 5.25588 10.7013 4.67447C10.8989 4.58809 11.24 4.65684 11.4152 4.54651C11.3139 4.26854 11.1678 4.03192 11.191 3.63874Z" fill="#231F20"/>
<path id="path104" fill-rule="evenodd" clip-rule="evenodd" d="M8.01612 3.64764C8.17221 3.93378 8.22301 4.23442 8.44489 4.45068C8.54481 4.54804 8.73912 4.66671 8.6428 4.93746C8.62029 5.00132 8.45578 5.14371 8.36083 5.17168C8.01396 5.27408 7.20569 5.19283 7.4794 4.76038C7.76627 4.77376 8.15186 4.94668 8.36628 4.73842C8.20162 4.4752 7.90806 3.95445 8.01612 3.64764Z" fill="#231F20"/>
<path id="path106" fill-rule="evenodd" clip-rule="evenodd" d="M11.0602 6.556C10.538 6.89149 9.9556 7.25632 9.09983 7.1717C8.91698 7.01273 8.84727 6.65896 9.02491 6.42531C9.11738 6.58428 9.05929 6.87667 9.31698 6.92066C9.80256 7.00375 10.3677 6.62362 10.717 6.49077C10.9336 6.12563 10.6983 5.99133 10.5032 5.75632C10.1038 5.27483 9.56794 4.67803 9.58741 3.9572C9.74887 3.84013 9.76281 4.13588 9.78597 4.18973C9.99454 4.67787 10.5195 5.30215 10.9026 5.71994C10.9966 5.82282 11.1515 5.92154 11.1687 5.98957C11.2184 6.18741 11.0395 6.42443 11.0602 6.556Z" fill="#231F20"/>
<path id="path108" fill-rule="evenodd" clip-rule="evenodd" d="M4.17476 6.20281C4.01106 6.10938 3.97209 5.69784 3.7799 5.68614C3.50525 5.66948 3.55533 6.22004 3.55643 6.54199C3.36737 6.37036 3.33413 5.84191 3.47301 5.57052C3.31473 5.49279 3.24405 5.65625 3.15625 5.71387C3.26909 4.89416 4.35536 5.33366 4.17476 6.20281Z" fill="#231F20"/>
<path id="path110" fill-rule="evenodd" clip-rule="evenodd" d="M11.3918 6.8971C11.1487 7.35984 10.8047 7.86945 10.0914 7.88428C10.0769 7.73484 10.0657 7.50744 10.0922 7.41745C10.6375 7.36505 10.9742 7.08748 11.3918 6.8971Z" fill="#231F20"/>
<path id="path112" fill-rule="evenodd" clip-rule="evenodd" d="M7.97461 7.19758C8.42961 7.43684 9.26583 7.46256 9.88426 7.44445C9.91743 7.57995 9.91663 7.74734 9.91791 7.91256C9.12296 7.95222 8.18305 7.75551 7.97461 7.19758Z" fill="#231F20"/>
<path id="path114" fill-rule="evenodd" clip-rule="evenodd" d="M7.88852 7.64347C8.20315 8.43346 9.28456 8.34251 10.1965 8.32072C10.1564 8.42328 10.0693 8.54444 9.96117 8.58827C9.66894 8.70718 8.86293 8.7974 8.45724 8.58194C8.19995 8.44516 8.03464 8.1361 7.89368 7.95493C7.8256 7.86743 7.48662 7.64396 7.88852 7.64347Z" fill="#231F20"/>
<path id="path116" fill-rule="evenodd" clip-rule="evenodd" d="M11.0219 12.0011C10.6527 12.6335 10.2994 13.283 9.86133 13.8408C10.045 13.3008 10.1236 12.397 10.1513 11.708C10.5355 11.5282 10.8645 11.7485 11.0219 12.0011Z" fill="#81B0C4"/>
<path id="path118" fill-rule="evenodd" clip-rule="evenodd" d="M13.0095 14.274C12.5961 14.3567 12.3056 14.7585 11.9023 14.7327C12.124 14.4203 12.5124 14.2885 13.0095 14.274Z" fill="#231F20"/>
<path id="path120" fill-rule="evenodd" clip-rule="evenodd" d="M13.1916 14.9209C12.8547 14.9565 12.4589 15.0111 12.1172 14.983C12.279 14.7358 12.9023 14.8211 13.1916 14.9209Z" fill="#231F20"/>
<path id="path122" fill-rule="evenodd" clip-rule="evenodd" d="M13.3089 15.4788C12.9302 15.487 12.4595 15.4795 12.0996 15.4493C12.3125 15.2206 13.0633 15.3644 13.3089 15.4788Z" fill="#231F20"/>
<path id="path124" fill-rule="evenodd" clip-rule="evenodd" d="M10.309 17.005C10.3633 17.4805 10.5519 17.9624 10.5283 18.4832C10.3189 18.5539 10.1986 18.6156 9.91808 18.6152C9.89829 18.1726 9.83907 17.4959 9.85678 17.074C9.99476 17.0831 10.1982 16.9754 10.309 17.005Z" fill="#DCD9D8"/>
<path id="path126" fill-rule="evenodd" clip-rule="evenodd" d="M9.69841 9.9959C9.50826 10.12 9.34632 10.275 9.16371 10.4075C8.75874 10.4275 8.53775 10.3795 8.24023 10.1469C8.24512 10.1283 8.27501 10.1366 8.27613 10.1137C8.70963 10.3069 9.26067 10.035 9.69841 9.9959Z" fill="#F0D6B7"/>
<path id="path128" fill-rule="evenodd" clip-rule="evenodd" d="M7.42383 12.9509C7.54293 12.4348 8.00961 12.1675 8.4334 11.8833C8.87082 12.4384 9.13685 13.1524 9.4298 13.8413C8.73765 13.6327 8.03044 13.2941 7.42383 12.9509Z" fill="#81B0C4"/>
<path id="path130" fill-rule="evenodd" clip-rule="evenodd" d="M9.85849 17.074C9.84078 17.496 9.89999 18.1727 9.91979 18.6153C10.2003 18.6157 10.3206 18.5539 10.53 18.4833C10.5536 17.9625 10.3651 17.4806 10.3107 17.005C10.1999 16.9755 9.99647 17.0832 9.85849 17.074ZM5.49037 14.6743C5.67535 16.3748 5.94328 17.8044 6.43469 19.3103C7.52534 19.6414 8.84014 19.6703 9.80416 19.3714C9.62716 18.5215 9.70448 17.4868 9.60104 16.5798C9.52307 15.8981 9.56281 15.2122 9.45592 14.5167C8.28781 14.2736 6.63673 14.4598 5.49037 14.6743ZM9.73213 14.5273C9.72227 15.2577 9.76482 15.9781 9.82059 16.7094C10.101 16.6673 10.2913 16.6392 10.5519 16.582C10.4673 15.878 10.4777 15.0859 10.3054 14.4631C10.1062 14.465 9.93076 14.4608 9.73213 14.5273ZM11.1548 14.4096C11.0217 14.3791 10.8667 14.4084 10.7396 14.4109C10.7994 15.0062 10.9444 15.6632 10.9954 16.2881C11.1955 16.2944 11.3024 16.2 11.467 16.1683C11.4758 15.6197 11.4191 14.8639 11.1548 14.4096ZM13.309 16.3778C13.726 16.2765 13.9883 15.7657 13.8716 15.2411C13.7933 14.8885 13.6539 14.2246 13.5047 13.9991C13.3945 13.8323 13.0955 13.6139 12.8568 13.7667C12.4685 14.0154 11.7844 14.0876 11.5013 14.3885C11.6433 14.8613 11.6873 15.5106 11.7459 16.1097C12.231 16.1399 12.8279 15.9762 13.2313 16.1499C12.9497 16.2412 12.5842 16.2419 12.3409 16.3748C12.5397 16.4709 13.0054 16.4515 13.309 16.3778ZM9.43052 13.8414C9.13757 13.1525 8.87155 12.4385 8.43413 11.8834C8.01034 12.1676 7.54366 12.4349 7.42455 12.951C8.03116 13.2942 8.73838 13.6328 9.43052 13.8414ZM10.1526 11.708C10.1249 12.397 10.0463 13.3008 9.86265 13.8408C10.3007 13.283 10.654 12.6335 11.0232 12.0011C10.8659 11.7485 10.5369 11.5282 10.1526 11.708ZM9.33405 11.4171C9.1681 11.3993 9.02724 11.6079 8.81145 11.5177C8.76201 11.5723 8.71706 11.6316 8.66666 11.6849C9.14326 12.2593 9.35985 13.0742 9.72796 13.7492C9.92548 13.1008 9.90272 12.3904 9.94623 11.6828C9.67483 11.7 9.52427 11.4373 9.33405 11.4171ZM8.80769 10.7224C8.78998 10.9191 8.83573 10.9835 8.87531 11.209C9.52195 11.4111 9.40905 10.3215 8.80769 10.7224ZM8.09062 10.487C7.81199 10.3348 7.39342 10.169 7.03353 10.1003C6.58744 10.015 6.62922 10.7088 6.64816 11.1227C6.66302 11.4505 6.83346 11.797 6.90748 12.0147C6.94222 12.1164 6.95005 12.2243 7.03696 12.2444C7.19059 12.2803 7.69733 12.0776 7.84172 11.9989C8.14711 11.8324 8.38405 11.5679 8.64342 11.3904C8.64679 11.304 8.65007 11.2177 8.65352 11.1313C8.49759 11.0536 8.31738 10.9985 8.08846 10.9884C8.24374 10.9103 8.47219 10.9114 8.6137 10.8185C8.61506 10.7839 8.6165 10.7493 8.6177 10.7151C8.35937 10.6952 8.26089 10.5801 8.09062 10.487ZM5.42927 10.0036C5.19802 10.2384 6.07787 10.5584 6.35801 10.5756C6.35644 10.4271 6.44267 10.287 6.4253 10.1804C6.09258 10.122 5.65532 10.1606 5.42927 10.0036ZM8.27796 10.1138C8.27684 10.1368 8.24695 10.1284 8.24206 10.1471C8.53958 10.3796 8.76057 10.4277 9.16554 10.4077C9.34815 10.2751 9.51009 10.1202 9.70023 9.99606C9.26249 10.0352 8.71145 10.307 8.27796 10.1138ZM10.8927 10.9067C10.8802 10.6459 10.8117 10.1095 10.6505 10.0156C10.3121 9.8181 9.71057 10.4144 9.45576 10.5054C9.48349 10.5852 9.52924 10.6484 9.53277 10.7504C9.68349 10.7133 9.86698 10.7387 9.99759 10.8029C9.84655 10.8198 9.67908 10.8187 9.57916 10.8906C9.54254 10.9965 9.58813 11.1407 9.56378 11.2876C9.92227 11.3888 10.3317 11.4426 10.7849 11.4559C10.8731 11.3413 10.9031 11.1231 10.8927 10.9067ZM5.03996 10.2307C4.96734 10.1789 4.47609 9.53973 4.40879 9.56625C3.51987 9.91681 2.68869 10.523 1.94595 11.0963C2.65411 12.6159 2.93998 14.4776 2.99049 16.2719C3.80172 16.6513 4.51427 17.1983 5.6151 17.2554C5.48771 16.3542 5.37143 15.5501 5.29912 14.7015C5.02253 14.5849 4.6257 14.7068 4.36685 14.6654C4.36466 14.3534 4.76217 14.5288 4.79528 14.319C4.82023 14.1603 4.57656 14.1483 4.65591 13.8985C4.85826 13.972 4.96453 14.1345 5.18034 14.1955C5.37753 13.7641 5.17758 13.0008 5.206 12.6402C5.21139 12.5725 5.23981 12.2651 5.39146 12.3191C5.52567 12.3668 5.38379 13.1365 5.3985 13.4778C5.4119 13.7922 5.36053 14.0964 5.48786 14.2938C6.5516 14.149 7.63254 14.0554 8.78349 14.0239C8.53028 13.9152 8.22948 13.8124 7.89969 13.6265C7.72091 13.5257 7.15735 13.316 7.10576 13.1462C7.02345 12.8756 7.32173 12.7315 7.37275 12.4995C6.8358 12.7924 6.73104 12.2188 6.60402 11.8125C6.48894 11.4445 6.42342 11.1695 6.39519 10.9573C5.93264 10.7368 5.43809 10.5134 5.03996 10.2307ZM10.4229 9.64358C11.1635 9.28444 11.297 10.9858 11.0067 11.5339C11.0516 11.6973 11.2059 11.7599 11.2689 11.9069C10.8556 12.6473 10.3965 13.3384 9.97483 14.07C10.2885 13.8747 10.7366 14.0351 11.1058 13.8889C11.2407 13.8356 11.3384 13.5267 11.4405 13.2795C11.7215 12.5997 12.0166 11.7425 12.1478 11.0937C12.1775 10.9459 12.2582 10.6238 12.2401 10.4922C12.2078 10.2566 11.8882 10.082 11.7256 9.93628C11.4261 9.66721 11.2375 9.43043 10.9251 9.17883C10.7984 9.36585 10.5265 9.49149 10.4229 9.64358ZM3.34616 3.07563C2.99325 3.46393 3.06712 4.19149 3.10984 4.70912C3.74773 4.30784 4.5944 4.74085 4.58642 5.42338C4.89097 5.41529 4.70019 5.04301 4.64511 4.80319C4.46507 4.01986 4.94841 3.16882 4.66702 2.45247C4.12067 2.4939 3.67183 2.71705 3.34616 3.07563ZM5.87129 0.821941C5.07236 1.04838 4.04843 1.62891 3.72013 2.34662C3.97434 2.30968 4.15082 2.18148 4.4016 2.16561C4.49637 2.15944 4.62054 2.20535 4.72946 2.17827C4.94653 2.12443 5.12973 1.63773 5.29349 1.45664C5.45312 1.27979 5.64499 1.20423 5.77629 1.04301C5.86065 1.00231 5.98538 1.00512 5.99017 0.878431C5.95361 0.839329 5.91511 0.809521 5.87129 0.821941ZM10.0302 1.03492C9.20096 0.567053 7.79734 0.21513 6.91524 0.654873C6.20348 1.00976 5.24137 1.59694 4.91335 2.34101C5.21978 3.05904 4.82258 3.71697 4.79723 4.44598C4.78377 4.83388 4.97986 5.1725 4.99489 5.59478C4.89003 5.76778 4.56967 5.78909 4.34791 5.77723C4.27326 5.40367 4.14258 4.9838 3.75791 4.94165C3.2136 4.88212 2.81562 5.3326 2.79089 5.80335C2.76163 6.35696 3.2161 7.27451 3.86026 7.2108C4.1091 7.1862 4.17023 6.93677 4.44135 6.93933C4.58829 7.23252 4.21467 7.32458 4.17623 7.53428C4.16622 7.58845 4.20722 7.80015 4.23107 7.89943C4.34807 8.38284 4.6089 9.00848 4.86562 9.37651C5.19145 9.84334 5.8316 9.91369 6.5203 9.95944C6.6433 9.69446 7.09644 9.71625 7.39169 9.78556C7.03785 9.64542 6.70888 9.30568 6.43625 9.00495C6.12309 8.65992 5.80587 8.28981 5.78985 7.83885C6.38164 8.65984 6.87055 9.37683 7.94664 9.73797C8.76089 10.011 9.71185 9.61281 10.3375 9.17346C10.5971 8.99085 10.7521 8.70111 10.9366 8.43588C11.6271 7.44269 11.9493 6.02507 11.8784 4.65103C11.8493 4.08436 11.8506 3.51962 11.6604 3.13837C11.4617 2.73973 10.7896 2.38308 10.3961 2.74366C10.3232 2.356 10.7233 2.11625 11.1933 2.25575C10.8582 1.8233 10.5065 1.30367 10.0302 1.03492ZM11.5752 13.8208C12.2232 13.4986 13.4339 12.9537 13.8401 13.8219C13.9901 14.142 14.1659 14.683 14.2436 15.0134C14.3533 15.4795 14.1247 16.4591 13.6456 16.6155C13.2224 16.7537 12.7287 16.7453 12.219 16.6429C12.159 16.5929 12.0921 16.5059 12.0454 16.4152C11.6815 16.4011 11.3407 16.4348 11.0532 16.5844C11.0804 16.8535 10.8984 16.8967 10.7277 16.9521C10.6012 17.4538 10.9808 18.109 10.89 18.5664C10.8252 18.8923 10.4242 18.9427 10.1295 19.0037C10.1199 19.1848 10.1424 19.336 10.1625 19.4892C10.0951 19.7375 9.79286 19.8788 9.50648 19.9134C8.56426 20.0267 7.13362 20.0776 6.22732 19.7517C5.97442 19.1314 5.77519 18.3769 5.56454 17.6686C4.68063 17.763 3.96574 17.2872 3.29179 16.9755C3.05845 16.8673 2.73565 16.8077 2.64848 16.622C2.56397 16.4421 2.59855 16.0975 2.57758 15.7719C2.52422 14.9405 2.47852 14.1384 2.25894 13.2871C2.16035 12.905 1.98851 12.5679 1.86863 12.1998C1.75783 11.8586 1.56424 11.437 1.51375 11.0968C1.43889 10.5925 1.9137 10.5645 2.21732 10.346C2.68666 10.0081 3.05507 9.82122 3.56337 9.51625C3.71393 9.42595 4.16794 9.19734 4.21958 9.09205C4.32224 8.88332 4.04337 8.58901 3.96881 8.42539C3.85087 8.16665 3.78936 7.94686 3.77246 7.69157C3.34606 7.62419 3.02282 7.37042 2.82757 7.08428C2.50459 6.61072 2.2806 5.7346 2.56005 5.06818C2.58196 5.01569 2.69126 4.91249 2.70738 4.83188C2.73918 4.67314 2.64753 4.46208 2.64184 4.29325C2.61248 3.42707 2.78839 2.68075 3.37151 2.41954C3.60823 1.47651 4.45549 1.16297 5.25373 0.694298C5.55212 0.519136 5.88105 0.407198 6.22075 0.282198C7.43936 -0.166281 9.30905 -0.0818253 10.3204 0.683079C10.7493 1.00744 11.4348 1.69229 11.68 2.18813C12.3276 3.49718 12.2816 5.68492 11.8286 7.27731C11.7677 7.49109 11.6794 7.80536 11.5561 8.06217C11.4701 8.24149 11.2029 8.60031 11.2353 8.75864C11.2687 8.92234 11.8446 9.3596 11.9681 9.47867C12.1905 9.69318 12.6129 9.97787 12.6471 10.2485C12.6839 10.5366 12.5202 10.9307 12.4373 11.2086C12.16 12.1363 11.8895 12.9937 11.5752 13.8208Z" fill="#231F20"/>
<path id="path132" fill-rule="evenodd" clip-rule="evenodd" d="M7.25057 7.39935C7.28572 7.35256 7.479 7.28148 7.74943 7.41169C7.74943 7.41169 7.42892 7.46514 7.45558 7.99951L7.32203 7.97275C7.32203 7.97275 7.184 7.48821 7.25057 7.39935Z" fill="#F7E4CD"/>
<path id="path134" fill-rule="evenodd" clip-rule="evenodd" d="M9.59266 11.9923C9.59266 12.0734 9.52687 12.1392 9.4457 12.1392C9.36461 12.1392 9.29883 12.0734 9.29883 11.9923C9.29883 11.9112 9.36461 11.8453 9.4457 11.8453C9.52687 11.8453 9.59266 11.9112 9.59266 11.9923Z" fill="#1D1919"/>
<path id="path136" fill-rule="evenodd" clip-rule="evenodd" d="M9.73914 12.6735C9.73914 12.7546 9.67336 12.8203 9.59219 12.8203C9.5111 12.8203 9.44531 12.7546 9.44531 12.6735C9.44531 12.5924 9.5111 12.5265 9.59219 12.5265C9.67336 12.5265 9.73914 12.5924 9.73914 12.6735Z" fill="#1D1919"/>
</g>
</g>
</g>
<defs>
<clipPath id="clip0_40966_6452">
<rect width="14.4872" height="20" fill="white"/>
</clipPath>
</defs>
</svg>
