<svg width="20" height="23" viewBox="0 0 20 23" fill="none" xmlns="http://www.w3.org/2000/svg">
<path d="M13.2447 13.9613C12.4236 13.9613 11.6874 14.2716 11.1833 14.7601L9.89159 13.9801C10.0287 13.6581 10.1074 13.3123 10.1074 12.9504C10.1074 12.5948 10.0315 12.2548 9.89884 11.9376L11.1877 11.1659C11.6918 11.6519 12.426 11.9605 13.2447 11.9605C14.7603 11.9605 15.9935 10.9088 15.9935 9.616C15.9935 8.32316 14.7603 7.2715 13.2447 7.2715C11.7291 7.2715 10.4959 8.32316 10.4959 9.616C10.4959 9.8474 10.5369 10.0705 10.6105 10.2819L9.32077 11.054C8.78201 10.4839 8.00629 10.0859 7.12246 9.96436V8.63859C8.36759 8.41554 9.30575 7.47197 9.30575 6.3445C9.30575 5.05166 8.07254 4 6.55697 4C5.0414 4 3.80819 5.05166 3.80819 6.3445C3.80819 7.45687 4.72205 8.3888 5.94227 8.62777V9.97076C4.27699 10.2201 3.00649 11.4597 3.00649 12.9504C3.00649 14.4484 4.28957 15.6926 5.96687 15.9334V17.3515C4.73417 17.5826 3.80819 18.5202 3.80819 19.6402C3.80819 20.933 5.0414 21.9847 6.55697 21.9847C8.07254 21.9847 9.30575 20.933 9.30575 19.6402C9.30575 18.5202 8.37977 17.5826 7.14707 17.3515V15.9334C7.99604 15.8114 8.76409 15.4304 9.30819 14.8613L10.6086 15.6463C10.5364 15.8558 10.4959 16.0767 10.4959 16.3058C10.4959 17.5986 11.7291 18.6503 13.2447 18.6503C14.7603 18.6503 15.9935 17.5986 15.9935 16.3058C15.9935 15.0129 14.7603 13.9613 13.2447 13.9613ZM13.2447 8.47927C13.9797 8.47927 14.5774 8.98933 14.5774 9.616C14.5774 10.2427 13.9797 10.7527 13.2447 10.7527C12.5098 10.7527 11.912 10.2427 11.912 9.616C11.912 8.98933 12.5098 8.47927 13.2447 8.47927ZM5.22423 6.3445C5.22423 5.71783 5.82204 5.20782 6.55697 5.20782C7.2919 5.20782 7.88966 5.71783 7.88966 6.3445C7.88966 6.97117 7.2919 7.48118 6.55697 7.48118C5.82204 7.48118 5.22423 6.97117 5.22423 6.3445ZM7.88966 19.6402C7.88966 20.2669 7.2919 20.7769 6.55697 20.7769C5.82204 20.7769 5.22423 20.2669 5.22423 19.6402C5.22423 19.0135 5.82204 18.5035 6.55697 18.5035C7.2919 18.5035 7.88966 19.0135 7.88966 19.6402ZM6.55687 14.5357C5.53186 14.5357 4.698 13.8246 4.698 12.9504C4.698 12.0762 5.53186 11.3649 6.55687 11.3649C7.58183 11.3649 8.41569 12.0762 8.41569 12.9504C8.41569 13.8246 7.58183 14.5357 6.55687 14.5357ZM13.2447 17.4425C12.5098 17.4425 11.912 16.9324 11.912 16.3058C11.912 15.6791 12.5098 15.1691 13.2447 15.1691C13.9797 15.1691 14.5774 15.6791 14.5774 16.3058C14.5774 16.9324 13.9797 17.4425 13.2447 17.4425Z" fill="white"/>
</svg>
