<svg width="100" height="29" viewBox="0 0 100 29" fill="none" xmlns="http://www.w3.org/2000/svg">
<path d="M74.3347 22.4054V5.4435H79.7147L79.7472 7.46893C80.822 5.91525 82.4054 5.18927 84.2401 5.18927C86.5508 5.18927 88.1949 6.26554 89.0819 7.9435C90.1582 6.10734 92.1893 5.18927 94.2726 5.18927C97.9746 5.18927 100 7.97458 100 11.4873V22.4054H94.5254V12.3107C94.5254 10.6653 93.4816 9.68362 92.2147 9.68362C90.9477 9.68362 89.9054 10.6723 89.9054 12.3107V22.4054H84.4308V12.3107C84.4308 10.6653 83.3856 9.68362 82.1201 9.68362C80.8545 9.68362 79.8093 10.6723 79.8093 12.3107V22.4054H74.3347ZM72.4986 15.9492C72.4986 20.3164 69.0169 22.7853 64.589 22.7853C60.161 22.7853 56.6794 20.3164 56.6794 15.9492V5.4435H62.1879V15.791C62.1879 17.2782 63.1681 18.2274 64.589 18.2274C66.0099 18.2274 66.9901 17.2782 66.9901 15.791V5.4435H72.4986V15.9492ZM55.1893 9.81073V5.4435H50.6695V1.10734H45.1893V16.3291C45.1893 20.5381 47.6893 22.6582 51.709 22.6582C52.8799 22.6582 54.1102 22.5325 55.1893 22.0932V17.7571C54.5174 17.9795 53.815 18.0958 53.1073 18.1017C51.6511 18.1017 50.6695 17.4364 50.6695 15.8856V9.81215L55.1893 9.81073ZM38.2599 13.9237C38.2599 16.3616 36.4873 18.161 34.3051 18.161C32.0904 18.161 30.3178 16.3573 30.3178 13.9237C30.3178 11.5226 32.0904 9.71469 34.3051 9.71469C36.4873 9.71469 38.2599 11.5198 38.2599 13.9237ZM30.3164 28.9873V20.6328C31.7406 21.9639 33.6198 22.7001 35.5692 22.6907C40.1582 22.6907 43.7613 18.798 43.7613 13.9237C43.7613 9.08192 40.154 5.18927 35.5692 5.18927C34.5658 5.18458 33.5714 5.37791 32.6429 5.75819C31.7144 6.13847 30.87 6.69822 30.1582 7.40537L30.1271 5.4435H24.8107V28.9873H30.3164ZM17.3418 11.3319C17.3418 14.8136 14.7782 17.4054 11.5819 17.4054C8.38559 17.4054 5.82345 14.8107 5.82345 11.3319C5.82345 7.85311 8.38559 5.25847 11.5819 5.25847C14.7782 5.25847 17.3418 7.84887 17.3418 11.3291V11.3319ZM11.5819 0C5.09463 0 0 5.03107 0 11.3291C0 17.6271 5.09463 22.6582 11.5819 22.6582C18.0692 22.6582 23.1638 17.6271 23.1638 11.3291C23.1638 5.03107 18.0692 0 11.5819 0Z" fill="#7F8184"/>
</svg>
