<svg width="319" height="71" viewBox="0 0 319 71" fill="none" xmlns="http://www.w3.org/2000/svg">
<path d="M45.1183 8.06787C43.6347 7.14516 41.9072 6.6743 40.1604 6.71235C38.5812 6.66479 37.0259 7.08333 35.6811 7.90616V0.67672H30.6562V27.0404H35.0638V25.9037C35.2026 26.013 35.3413 26.1177 35.4849 26.2176C36.8057 27.1355 38.452 27.5921 40.4236 27.5873C42.1225 27.6254 43.7927 27.145 45.214 26.2176C46.6018 25.2806 47.7073 23.9917 48.4203 22.4839C49.2052 20.8193 49.5976 18.9976 49.5641 17.157C49.5976 15.3021 49.2004 13.4614 48.4012 11.7872C47.669 10.27 46.5348 8.98582 45.1183 8.07262V8.06787ZM43.7735 20.1819C43.4816 21.0333 42.9552 21.7895 42.2517 22.3508C41.4908 22.912 40.5576 23.1974 39.6101 23.1546C38.6625 23.2069 37.7198 22.9405 36.9397 22.4031C36.2506 21.8704 35.7481 21.1332 35.504 20.2961C35.193 19.2783 35.0446 18.2129 35.0638 17.1475C35.0446 16.0821 35.193 15.0167 35.504 13.9989C35.7481 13.1713 36.241 12.4388 36.9062 11.8919C37.6336 11.3639 38.519 11.1023 39.4187 11.1404C40.3997 11.0976 41.3664 11.3877 42.1608 11.9584C42.8882 12.5197 43.4385 13.2759 43.7496 14.1368C44.1037 15.1023 44.2808 16.1201 44.2664 17.1475C44.2808 18.1796 44.1133 19.2022 43.7735 20.1772V20.1819ZM65.658 16.5767C64.5142 15.9679 63.2939 15.5113 62.0305 15.2117C60.4896 14.8217 59.3458 14.503 58.5897 14.2605C58.0489 14.1225 57.5416 13.88 57.1014 13.547C56.9865 13.4376 56.8908 13.3045 56.8286 13.157C56.7664 13.0096 56.7377 12.8479 56.7425 12.6909C56.7425 12.415 56.8142 12.1439 56.9626 11.9109C57.1109 11.6778 57.3215 11.4923 57.5751 11.3734C58.2643 11.0453 59.03 10.9216 59.7861 11.0167C60.5901 11.0405 61.3701 11.3021 62.0257 11.7634C62.2985 11.9727 62.5234 12.2343 62.6862 12.5339C62.8489 12.8336 62.9494 13.1618 62.9829 13.5042L68.0891 12.5863C67.9359 11.44 67.4622 10.3604 66.7204 9.47571C65.9356 8.56727 64.9354 7.86811 63.806 7.44005C62.4852 6.94065 61.0878 6.69808 59.676 6.72186C58.2451 6.68857 56.8238 6.95016 55.4982 7.48285C54.3975 7.92518 53.4452 8.67191 52.7561 9.63266C52.0957 10.6077 51.7511 11.7634 51.7846 12.9382C51.7559 13.8419 51.9808 14.7408 52.4259 15.5256C52.9427 16.3199 53.6653 16.9572 54.5219 17.3663C55.7566 17.975 57.0535 18.4459 58.3983 18.7598C59.8339 19.1165 60.8868 19.4447 61.5663 19.673C62.0545 19.8014 62.5043 20.044 62.8776 20.3912C63.0834 20.6623 63.1886 20.9952 63.1743 21.3377C63.1886 21.6231 63.1264 21.9037 63.002 22.1558C62.8776 22.4126 62.6909 22.6266 62.4564 22.7931C61.8295 23.1783 61.0973 23.3591 60.3651 23.3163C59.3937 23.3543 58.4366 23.0785 57.6421 22.5267C56.9243 21.9988 56.4266 21.2188 56.2543 20.3436L51.1529 21.1141C51.2725 22.0606 51.5788 22.9691 52.0622 23.7919C52.5455 24.6147 53.1868 25.3329 53.9525 25.8989C55.4838 27.0309 57.5034 27.5969 60.0014 27.5921C62.5952 27.5921 64.6291 27.0118 66.1078 25.8561C67.5866 24.7003 68.3188 23.1022 68.314 21.0761C68.3427 20.1581 68.1274 19.2545 67.6871 18.4507C67.199 17.6564 66.5003 17.0143 65.6676 16.5862L65.658 16.5767ZM85.255 8.19629C83.6757 7.18321 81.8237 6.6743 79.9477 6.73137C78.1292 6.69808 76.3298 7.15468 74.7506 8.05836C73.2431 8.94777 72.018 10.2367 71.2045 11.7825C70.3144 13.528 69.8741 15.4638 69.9172 17.4233C69.8837 19.264 70.3335 21.0761 71.2332 22.6885C72.0898 24.2009 73.3484 25.4518 74.8655 26.2984C76.5165 27.1973 78.3733 27.6444 80.254 27.6064C82.1204 27.6206 83.9533 27.0975 85.5325 26.1082C87.1357 25.1189 88.3752 23.6444 89.0691 21.8989L84.0729 20.4673C83.7379 21.2331 83.1828 21.8751 82.4745 22.3175C81.7136 22.7598 80.8426 22.9833 79.9621 22.9596C78.4068 22.9596 77.2295 22.4554 76.4303 21.4471C75.8034 20.6052 75.4206 19.6064 75.3153 18.5601H89.2366C89.4423 16.1724 89.2031 14.094 88.5187 12.3199C87.887 10.641 86.7433 9.19985 85.2502 8.20104L85.255 8.19629ZM75.4349 14.8597C75.5881 14.0417 75.9231 13.2712 76.416 12.6005C77.22 11.5684 78.469 11.0548 80.1727 11.0548C81.6275 11.0548 82.6755 11.4971 83.3216 12.3817C83.8001 13.1285 84.0921 13.9798 84.1686 14.8597H75.4349ZM101.78 7.23553C101.191 7.27834 100.607 7.38297 100.038 7.54468C99.4873 7.70164 98.9656 7.92994 98.4775 8.22958C97.865 8.58629 97.329 9.05716 96.8983 9.62315C96.6925 9.8895 96.5106 10.1701 96.3479 10.465V7.27834H91.9404V27.0547H96.9653V16.9477C96.9557 16.2533 97.061 15.5637 97.2763 14.9073C97.4725 14.327 97.7836 13.7896 98.1952 13.333C98.6115 12.8764 99.1188 12.5149 99.6835 12.2581C100.306 11.968 100.976 11.8015 101.66 11.7587C102.306 11.6921 102.957 11.7539 103.579 11.9299V7.26882C102.986 7.19748 102.383 7.17846 101.789 7.21651V7.23077L101.78 7.23553ZM119.458 7.27834L114.748 20.962L110.049 7.26407H105.053L112.236 27.0404H117.261L124.444 7.26407L119.458 7.27834ZM141.031 10.3176C140.38 9.04289 139.284 8.0536 137.944 7.53517C136.456 6.97394 134.872 6.70284 133.278 6.73137C130.885 6.73137 129 7.24504 127.622 8.26763C126.267 9.25216 125.272 10.6552 124.793 12.2581L129.311 13.6897C129.44 13.2759 129.656 12.8907 129.948 12.5672C130.235 12.2438 130.589 11.9822 130.986 11.8015C131.704 11.4638 132.489 11.2878 133.278 11.2736C134.599 11.2736 135.542 11.5494 136.102 12.0964C136.576 12.61 136.863 13.2664 136.906 13.9656L134.503 14.3223C133.216 14.5078 132.068 14.7075 131.053 14.9168C130.163 15.0928 129.282 15.3306 128.426 15.635C127.492 15.9489 126.626 16.4436 125.885 17.0904C125.272 17.6374 124.803 18.327 124.516 19.0975C124.224 19.9013 124.08 20.7479 124.09 21.604C124.08 22.6552 124.339 23.692 124.851 24.6147C125.377 25.5374 126.153 26.2937 127.091 26.7931C128.201 27.3638 129.435 27.6444 130.68 27.6064C132.149 27.6587 133.608 27.3543 134.929 26.717C135.891 26.1843 136.748 25.4756 137.442 24.6242V27.0547H141.811V14.9786C141.811 14.075 141.773 13.2569 141.701 12.5244C141.624 11.7492 141.39 10.9929 141.021 10.3033V10.3176H141.031ZM136.815 19.1736C136.786 19.8205 136.633 20.4578 136.365 21.0476C136.159 21.4281 135.901 21.7753 135.604 22.0892C135.173 22.5458 134.661 22.9215 134.097 23.1974C133.374 23.5398 132.575 23.7063 131.776 23.6825C131.268 23.6968 130.761 23.6064 130.287 23.4257C129.9 23.2782 129.565 23.0214 129.325 22.6837C129.091 22.3412 128.976 21.937 128.986 21.5232C128.986 21.2093 129.053 20.9001 129.196 20.6243C129.359 20.3294 129.584 20.0773 129.857 19.8823C130.22 19.6207 130.622 19.4114 131.043 19.2497C131.527 19.069 132.024 18.9263 132.532 18.8074C133.096 18.6695 133.833 18.5268 134.752 18.3603C135.341 18.2509 136.049 18.132 136.872 18.0036C136.863 18.327 136.844 18.7123 136.82 19.1546V19.1689L136.815 19.1736ZM159.006 8.07262C157.522 7.14992 155.799 6.67905 154.048 6.7171C152.468 6.66954 150.913 7.08809 149.568 7.91091V0.67672H144.539V27.0404H148.946V25.9037C149.085 26.013 149.224 26.1177 149.372 26.2176C150.693 27.1355 152.339 27.5921 154.311 27.5873C156.01 27.6254 157.685 27.145 159.106 26.2176C160.489 25.2806 161.599 23.9917 162.308 22.4839C163.092 20.8193 163.485 18.9976 163.456 17.157C163.49 15.3021 163.088 13.4614 162.288 11.7872C161.556 10.27 160.422 8.98582 159.006 8.07262ZM157.666 20.1914C157.374 21.0428 156.847 21.799 156.139 22.3603C155.378 22.9215 154.445 23.2069 153.497 23.1641C152.55 23.2116 151.607 22.95 150.827 22.4126C150.138 21.8799 149.635 21.1427 149.391 20.3056C149.08 19.2878 148.932 18.2224 148.951 17.157C148.932 16.0916 149.08 15.0262 149.391 14.0084C149.635 13.1808 150.124 12.4483 150.794 11.9014C151.521 11.3734 152.406 11.1118 153.306 11.1499C154.287 11.1071 155.254 11.3972 156.048 11.968C156.775 12.5292 157.331 13.2854 157.637 14.1463C157.986 15.1118 158.163 16.1296 158.149 17.157C158.163 18.1843 158.001 19.2117 157.661 20.1819L157.666 20.1914ZM165.988 4.52925H170.984V0.125H165.988V4.51974V4.52925ZM165.988 27.0499H170.984V7.26882H165.988V27.0451V27.0499ZM174.463 27.0499H179.459V0.125H174.463V27.0451V27.0499ZM183.101 4.52925H188.102V0.125H183.106L183.096 4.51974L183.101 4.52925ZM183.101 27.0499H188.102V7.26882H183.106L183.096 27.0451L183.101 27.0499ZM198.903 1.7754H193.907V7.26882H190.528V11.1166H193.907V18.6599C193.907 19.8442 193.907 20.9001 193.945 21.8371C193.979 22.8026 194.242 23.7491 194.711 24.5957C195.232 25.5422 196.065 26.2841 197.07 26.6884C198.19 27.1403 199.386 27.3733 200.597 27.3876C201.951 27.4161 203.301 27.302 204.631 27.0451V22.9072C203.564 23.0642 202.478 23.1118 201.401 23.0547C200.98 23.0547 200.568 22.9548 200.2 22.755C199.831 22.5553 199.516 22.2699 199.291 21.9227C199.042 21.4709 198.917 20.9667 198.932 20.453C198.913 19.8347 198.903 19.1451 198.903 18.3746V11.1261H204.65V7.26882H198.903V1.7754ZM221.864 7.26882L216.691 20.7289L211.499 7.26407H206.321L214.317 26.8882L211.058 35.8394H215.686L226.884 7.27358H221.864V7.26882Z" fill="#F3602E"/>
<path d="M308.834 22.3938V0.886212L312.389 0.867188V27.1215H308.853L289.912 5.5901V27.1215H286.375V0.867188H289.912L308.834 22.3938Z" fill="#F3602E"/>
<path fill-rule="evenodd" clip-rule="evenodd" d="M246.868 1.04498C249.711 2.14367 252.118 4.13652 253.726 6.71914L250.826 8.50272C248.974 5.50155 245.638 3.49919 241.839 3.49919C236.019 3.49919 231.301 8.18881 231.301 13.9724C231.301 19.7559 236.019 24.4455 241.839 24.4455C245.672 24.4455 249.031 22.4099 250.874 19.3659L253.879 21.159C252.324 23.7559 249.96 25.7725 247.141 26.8997C244.322 28.027 241.207 28.2029 238.269 27.3991C235.33 26.5953 232.732 24.8593 230.865 22.4527C229.004 20.046 227.975 17.1019 227.946 14.0675C227.913 11.033 228.879 8.07942 230.693 5.65851C232.507 3.23284 235.072 1.46829 237.991 0.63595C240.91 -0.196387 244.031 -0.0537006 246.873 1.04498H246.868Z" fill="#F3602E"/>
<path fill-rule="evenodd" clip-rule="evenodd" d="M277.011 25.835C283.553 21.816 285.553 13.2549 281.486 6.71509C277.418 0.175302 268.818 -1.86511 262.276 2.15388C255.734 6.17288 253.734 14.7341 257.802 21.2738C261.87 27.8136 270.469 29.854 277.011 25.835ZM269.594 24.4415C275.413 24.4415 280.131 19.7519 280.131 13.9683C280.131 8.18476 275.413 3.49513 269.594 3.49513C263.774 3.49513 259.056 8.18476 259.056 13.9683C259.056 19.7519 263.774 24.4415 269.594 24.4415Z" fill="#F3602E"/>
<path fill-rule="evenodd" clip-rule="evenodd" d="M14.0026 0C6.26911 0 0 6.23063 0 13.9167C0 21.6027 6.26911 27.8333 14.0026 27.8333C21.7361 27.8333 28.0052 21.6027 28.0052 13.9167C28.0052 6.23063 21.7361 0 14.0026 0ZM14.0026 22.63C9.16439 22.63 5.24021 18.73 5.24021 13.9214C5.24021 9.1129 9.16439 5.20805 14.0026 5.20805C18.8408 5.20805 22.765 9.10814 22.765 13.9167C22.765 18.7252 18.8408 22.6253 14.0026 22.6253V22.63Z" fill="#F3602E"/>
<path d="M222.345 60.0021C224.347 60.0021 225.971 58.3786 225.971 56.376C225.971 54.3734 224.347 52.75 222.345 52.75C220.342 52.75 218.719 54.3734 218.719 56.376C218.719 58.3786 220.342 60.0021 222.345 60.0021Z" fill="#F3602E"/>
<path d="M10.8361 67.3175C9.53076 67.3175 8.29791 67.0999 7.13758 66.5923C5.97725 66.0846 4.96197 65.4319 4.09172 64.4892C3.22147 63.5464 2.49627 62.3861 2.06114 61.0082C1.5535 59.6303 1.33594 58.0348 1.33594 56.2944C1.33594 54.4813 1.5535 52.9584 2.06114 51.5805C2.56879 50.2026 3.22147 49.0423 4.09172 48.172C4.96197 47.2293 5.97725 46.5766 7.13758 46.069C8.29791 45.5613 9.53076 45.3438 10.9087 45.3438C12.214 45.3438 13.4469 45.5613 14.6072 46.069C15.7675 46.5766 16.7828 47.2293 17.6531 48.172C18.5233 49.1148 19.2485 50.2751 19.6836 51.5805C20.1913 52.9584 20.4088 54.4813 20.4088 56.2944C20.4088 58.0348 20.1913 59.6303 19.6836 61.0082C19.176 62.3861 18.5233 63.5464 17.6531 64.4892C16.7828 65.4319 15.7675 66.1571 14.6072 66.5923C13.3744 67.0999 12.1415 67.3175 10.8361 67.3175ZM10.8361 63.6915C11.7064 63.6915 12.5766 63.4739 13.3018 62.9662C14.0996 62.4586 14.6797 61.6609 15.1148 60.5731C15.55 59.4853 15.8401 58.0348 15.8401 56.2218C15.8401 54.4088 15.6225 53.0309 15.1148 51.9431C14.6797 50.8553 14.027 50.0576 13.3018 49.6225C12.5766 49.1148 11.7064 48.8973 10.8361 48.8973C9.96588 48.8973 9.09564 49.1148 8.37043 49.6225C7.64523 50.1301 6.99254 50.8553 6.55742 51.9431C6.12229 53.0309 5.83221 54.4813 5.83221 56.2218C5.83221 58.0348 6.04977 59.4853 6.55742 60.5731C6.99254 61.6609 7.64523 62.4586 8.37043 62.9662C9.09564 63.4739 9.96588 63.6915 10.8361 63.6915ZM29.764 66.9549H25.4128V45.6338H32.3747L39.4818 65.2869L38.7565 65.5045V45.6338H43.1078V66.9549H36.0733L28.9663 47.3018L29.764 47.0842V66.9549ZM72.0435 49.1148H65.009L66.822 47.0117V66.9549H62.3257V47.0117L64.1387 49.1148H57.1043V45.6338H72.0435V49.1148ZM93.5096 45.6338V66.9549H89.0133V56.7295L91.0439 58.1074H79.2955L81.3261 56.802V66.9549H76.8298V45.6338H81.3261V55.9318L79.2955 54.5539H91.0439L89.0133 55.9318V45.6338H93.5096ZM101.487 49.1148L103.517 47.0117V55.8592L102.502 54.5539H110.334V58.0348H102.502L103.517 56.7295V65.6495L101.487 63.5464H111.93V67.0274H98.9486V45.6338H111.93V49.1148H101.487ZM126.724 66.9549V45.6338H135.426C137.675 45.6338 139.343 46.1415 140.43 47.1568C141.518 48.1721 142.098 49.6225 142.098 51.508C142.098 52.5958 141.881 53.5386 141.446 54.3363C141.011 55.134 140.503 55.7142 139.923 56.1493C139.343 56.5844 138.762 56.802 138.182 56.8745C138.762 56.947 139.343 57.0921 139.85 57.3096C140.358 57.5272 140.793 57.9623 141.156 58.5425C141.518 59.1227 141.663 59.8479 141.663 60.7181C141.663 61.3708 141.663 62.096 141.663 62.7487C141.663 63.4014 141.663 64.1266 141.663 64.7793C141.663 65.2869 141.663 65.722 141.736 66.0846C141.808 66.4472 141.953 66.7373 142.098 66.9549H137.602C137.457 66.7373 137.385 66.4472 137.312 66.0846C137.239 65.722 137.167 65.2869 137.167 64.7793C137.167 64.1991 137.167 63.5464 137.167 63.0388C137.167 62.4586 137.167 61.8784 137.167 61.2983C137.167 60.428 136.949 59.8479 136.514 59.3402C136.079 58.9051 135.354 58.615 134.411 58.615H129.987L131.22 57.1646V66.9549H126.724ZM131.148 56.802L129.915 55.2065H134.411C134.991 55.2065 135.499 55.0615 135.934 54.8439C136.369 54.5539 136.732 54.1913 137.022 53.7561C137.312 53.2485 137.457 52.7408 137.457 52.0882C137.457 51.2179 137.167 50.4927 136.659 49.9851C136.152 49.4774 135.354 49.2599 134.411 49.2599H129.915L131.22 47.8094V56.802H131.148ZM156.167 67.3175C154.862 67.3175 153.629 67.0999 152.469 66.5923C151.308 66.0846 150.293 65.4319 149.423 64.4892C148.553 63.5464 147.827 62.3861 147.392 61.0082C146.885 59.6303 146.667 58.0348 146.667 56.2944C146.667 54.4813 146.885 52.9584 147.392 51.5805C147.9 50.2026 148.553 49.0423 149.423 48.172C150.293 47.2293 151.308 46.5766 152.469 46.069C153.629 45.5613 154.862 45.3438 156.24 45.3438C157.545 45.3438 158.778 45.5613 159.938 46.069C161.099 46.5766 162.114 47.2293 162.984 48.172C163.855 49.1148 164.58 50.2751 165.015 51.5805C165.522 52.9584 165.74 54.4813 165.74 56.2944C165.74 58.0348 165.522 59.6303 165.015 61.0082C164.507 62.3861 163.855 63.5464 162.984 64.4892C162.114 65.4319 161.099 66.1571 159.938 66.5923C158.778 67.0999 157.545 67.3175 156.167 67.3175ZM156.167 63.6915C157.038 63.6915 157.908 63.4739 158.633 62.9662C159.431 62.4586 160.011 61.6609 160.446 60.5731C160.881 59.4853 161.171 58.0348 161.171 56.2218C161.171 54.4088 160.954 53.0309 160.446 51.9431C160.011 50.8553 159.358 50.0576 158.633 49.6225C157.908 49.1148 157.038 48.8973 156.167 48.8973C155.297 48.8973 154.427 49.1148 153.702 49.6225C152.976 50.1301 152.324 50.8553 151.889 51.9431C151.454 53.0309 151.163 54.4813 151.163 56.2218C151.163 58.0348 151.381 59.4853 151.889 60.5731C152.324 61.6609 152.976 62.4586 153.702 62.9662C154.499 63.4739 155.297 63.6915 156.167 63.6915ZM168.858 66.9549L174.152 45.6338H181.259L186.553 66.9549H181.985L177.706 48.3896L173.427 66.9549H168.858ZM172.702 62.0235V58.5425H182.782V62.0235H172.702ZM191.05 66.9549V45.6338H197.939C199.39 45.6338 200.695 45.9239 201.855 46.4316C203.016 46.9392 204.031 47.6644 204.901 48.6072C205.771 49.5499 206.424 50.6378 206.859 51.9431C207.294 53.2485 207.512 54.6989 207.512 56.2218C207.512 57.7448 207.294 59.1952 206.859 60.5731C206.424 61.8784 205.771 63.0388 204.901 63.9815C204.031 64.9243 203.088 65.6495 201.855 66.1572C200.695 66.6648 199.39 66.9549 197.939 66.9549H191.05ZM195.619 65.6495L193.588 63.5464H197.432C198.447 63.5464 199.39 63.2563 200.26 62.6762C201.13 62.096 201.783 61.2258 202.29 60.2105C202.798 59.1227 203.016 57.8173 203.016 56.3669C203.016 54.8439 202.798 53.6111 202.29 52.5233C201.783 51.4355 201.13 50.6378 200.26 50.0576C199.39 49.4774 198.519 49.1873 197.432 49.1873H193.588L195.619 47.0842V65.6495Z" fill="#F3602E"/>
<path d="M239.102 66.2266V62.5664C239.188 62.3551 239.443 62.0429 239.865 61.6298C240.288 61.2071 240.802 60.7316 241.407 60.2032C242.012 59.6748 242.646 59.1369 243.309 58.5893C243.982 58.0321 244.601 57.5181 245.168 57.0474C245.841 56.4902 246.494 55.9138 247.128 55.3182C247.762 54.713 248.286 54.0742 248.699 53.4017C249.121 52.7196 249.333 52.0039 249.333 51.2546C249.333 50.3132 249.107 49.559 248.655 48.9922C248.213 48.4255 247.507 48.1421 246.537 48.1421C245.759 48.1421 245.139 48.315 244.678 48.6608C244.227 48.9971 243.905 49.4726 243.713 50.0874C243.521 50.6926 243.425 51.4035 243.425 52.2201H238.957C238.957 50.6638 239.25 49.3189 239.836 48.1853C240.432 47.0517 241.297 46.1823 242.43 45.5771C243.573 44.9623 244.966 44.6548 246.609 44.6548C248.204 44.6548 249.534 44.9479 250.601 45.5339C251.677 46.1199 252.484 46.9124 253.022 47.9115C253.56 48.9106 253.829 50.0394 253.829 51.2978C253.829 52.1432 253.665 52.9358 253.339 53.6755C253.022 54.4056 252.604 55.0829 252.085 55.7073C251.576 56.3317 251.028 56.9033 250.442 57.4221C249.856 57.9312 249.304 58.3923 248.785 58.8054C247.911 59.4971 247.152 60.1071 246.508 60.6355C245.865 61.1639 245.351 61.6106 244.966 61.9756C244.592 62.3407 244.361 62.6193 244.275 62.8114H253.699V66.2266H239.102ZM266.097 66.5724C264.742 66.5724 263.59 66.2794 262.638 65.6934C261.697 65.1074 260.928 64.31 260.333 63.3013C259.747 62.283 259.319 61.1158 259.05 59.7997C258.781 58.4836 258.647 57.1003 258.647 55.6497C258.647 54.199 258.781 52.8157 259.05 51.4996C259.319 50.1739 259.747 48.9971 260.333 47.9691C260.928 46.9412 261.697 46.1343 262.638 45.5483C263.59 44.9527 264.742 44.6548 266.097 44.6548C267.451 44.6548 268.599 44.9527 269.541 45.5483C270.492 46.1343 271.26 46.9412 271.846 47.9691C272.442 48.9971 272.874 50.1739 273.143 51.4996C273.412 52.8157 273.547 54.199 273.547 55.6497C273.547 57.1003 273.412 58.4836 273.143 59.7997C272.874 61.1158 272.442 62.283 271.846 63.3013C271.26 64.31 270.492 65.1074 269.541 65.6934C268.599 66.2794 267.451 66.5724 266.097 66.5724ZM266.097 63.0996C266.74 63.0996 267.278 62.8546 267.711 62.3647C268.153 61.8651 268.484 61.0678 268.705 59.9726C268.926 58.8775 269.036 57.4365 269.036 55.6497C269.036 53.8532 268.926 52.4122 268.705 51.3267C268.484 50.2315 268.153 49.4342 267.711 48.9346C267.278 48.4351 266.74 48.1853 266.097 48.1853C265.463 48.1853 264.925 48.4351 264.483 48.9346C264.041 49.4342 263.71 50.2315 263.489 51.3267C263.268 52.4122 263.157 53.8532 263.157 55.6497C263.157 57.4461 263.268 58.8919 263.489 59.987C263.71 61.0726 264.041 61.8651 264.483 62.3647C264.925 62.8546 265.463 63.0996 266.097 63.0996ZM278.12 66.2266V62.5664C278.206 62.3551 278.461 62.0429 278.884 61.6298C279.306 61.2071 279.82 60.7316 280.426 60.2032C281.031 59.6748 281.665 59.1369 282.328 58.5893C283 58.0321 283.62 57.5181 284.187 57.0474C284.859 56.4902 285.512 55.9138 286.146 55.3182C286.78 54.713 287.304 54.0742 287.717 53.4017C288.14 52.7196 288.351 52.0039 288.351 51.2546C288.351 50.3132 288.125 49.559 287.674 48.9922C287.232 48.4255 286.526 48.1421 285.555 48.1421C284.777 48.1421 284.158 48.315 283.697 48.6608C283.245 48.9971 282.923 49.4726 282.731 50.0874C282.539 50.6926 282.443 51.4035 282.443 52.2201H277.976C277.976 50.6638 278.269 49.3189 278.855 48.1853C279.45 47.0517 280.315 46.1823 281.449 45.5771C282.592 44.9623 283.985 44.6548 285.628 44.6548C287.222 44.6548 288.553 44.9479 289.619 45.5339C290.695 46.1199 291.502 46.9124 292.04 47.9115C292.578 48.9106 292.847 50.0394 292.847 51.2978C292.847 52.1432 292.684 52.9358 292.357 53.6755C292.04 54.4056 291.622 55.0829 291.103 55.7073C290.594 56.3317 290.047 56.9033 289.461 57.4221C288.875 57.9312 288.322 58.3923 287.803 58.8054C286.929 59.4971 286.17 60.1071 285.527 60.6355C284.883 61.1639 284.369 61.6106 283.985 61.9756C283.61 62.3407 283.38 62.6193 283.293 62.8114H292.717V66.2266H278.12ZM305.843 66.2266V62.1485H296.851V59.0504L304.431 44.943H310.209V58.7766H312.745V62.1485H310.209V66.2266H305.843ZM300.209 60.6931L299.013 58.7766H305.843V47.7962L306.751 48.0412L300.209 60.6931Z" fill="#F3602E"/>
<rect x="1.33594" y="34.7734" width="200.941" height="3.37716" fill="#F3602E"/>
<rect x="224.227" y="34.7734" width="88.1438" height="3.37716" fill="#F3602E"/>
</svg>
