<svg width="100" height="100" viewBox="0 0 100 100" fill="none" xmlns="http://www.w3.org/2000/svg">
<g clip-path="url(#clip0_57688_14799)">
<path fill-rule="evenodd" clip-rule="evenodd" d="M100 100H0V0H100V100ZM36.0409 36.3885V31.4746H40.1875C43.3168 31.4746 43.5268 32.8072 43.8813 35.0578L43.8846 35.0787H45.644V29.7307H24.19V31.4746H25.3293C26.1587 31.4746 26.3369 31.8156 26.3369 32.1877C26.3369 32.4623 26.2629 32.683 26.1774 32.9379C26.1712 32.9563 26.165 32.9749 26.1587 32.9937L23.1514 41.5195H23.105L20.5163 32.7922L20.5129 32.7825C20.4354 32.5579 20.3224 32.2307 20.3224 31.9939C20.3224 31.6839 20.5084 31.4746 20.989 31.4746H22.2368V29.7307H15.1759V31.4746H15.734C16.4238 31.4746 16.8966 31.6529 17.1369 32.3504L17.5321 33.4665L14.7109 41.6745H14.6644L11.7037 32.9472C11.5797 32.6217 11.4944 32.3272 11.4944 32.0946C11.4944 31.7846 11.7037 31.4746 12.223 31.4746H13.2151V29.7307H6.37891V31.4746H6.70443C7.60351 31.4746 7.93671 31.6684 8.13057 32.3117L12.564 45.3717H15.8503L18.5941 37.2489H18.6405L21.113 45.3717H24.3606L28.6312 32.9085C29.0265 31.7381 29.5613 31.4746 30.6852 31.4746H31.1657C32.2585 31.4746 32.7236 31.7846 32.7236 32.8077V41.9768C32.7236 43.3952 32.2895 43.62 31.4757 43.62H30.1659V45.3717H45.6441V39.4888H43.9312C43.6754 42.2016 42.9003 43.62 40.7533 43.62H36.0409V38.1247H37.1648C38.5831 38.1247 39.2264 38.8533 39.2264 40.7677V41.0932H40.8773V33.4665H39.2264V33.7688C39.2264 35.6987 38.5831 36.3885 37.1648 36.3885H36.0409ZM61.7501 39.4888V45.3717H47.2872V43.62H48.7986C49.4652 43.62 49.9147 43.3952 49.9147 42.5736V32.4977C49.9147 31.7846 49.597 31.4746 48.6513 31.4746H47.2872V29.7307H55.9293V31.4746H54.6039C53.5653 31.4746 53.2088 31.6916 53.2088 32.5597V43.62H56.7664C59.2156 43.62 59.7039 42.1783 59.9442 39.4888H61.7501ZM77.8019 39.4888V45.3717H63.3235V43.62H64.8504C65.5092 43.62 65.9665 43.3952 65.9665 42.5736V32.4977C65.9665 31.7846 65.6487 31.4746 64.6954 31.4746H63.3235V29.7307H71.9733V31.4746H70.6557C69.6171 31.4746 69.2606 31.6916 69.2606 32.5597V43.62H72.8259C75.2441 43.62 75.7479 42.1783 75.9882 39.4888H77.8019ZM89.6988 30.9006L89.707 30.9088L90.4898 29.7307H91.7609V35.0787H90.0015C89.4047 33.1022 88.2886 31.2653 85.3976 31.2653C83.4754 31.2653 82.1965 32.0946 82.1965 33.3038C82.1965 34.6989 83.4444 35.1794 85.3898 35.598C85.6368 35.6547 85.8722 35.7028 86.1048 35.7503C86.4125 35.8132 86.7152 35.8751 87.033 35.9545C90.1643 36.5823 92.7298 37.9154 92.7298 41.0157C92.7298 44.2168 89.9783 45.8367 86.3354 45.8367C83.6519 45.8367 82.1625 44.4856 81.6752 44.0436C81.6431 44.0145 81.6154 43.9893 81.592 43.9688L81.0727 45.3717H79.4683V39.4888H81.282C81.6617 42.1163 83.4909 43.837 86.5757 43.837C88.7847 43.837 89.9008 42.7054 89.9008 41.6513C89.9008 40.2639 88.5676 39.6594 86.568 39.2331C86.1608 39.1469 85.8249 39.0786 85.4782 39.0081C85.1385 38.939 84.7886 38.8678 84.3512 38.7758C81.685 38.2022 79.3675 36.8768 79.3675 33.9703C79.3675 30.7615 82.3515 29.2656 85.3046 29.2656C88.0727 29.2656 89.5128 30.7136 89.6988 30.9006ZM17.9197 67.996V69.7555H9.26987V67.996H10.7425C11.5796 67.996 11.9361 67.5 11.9361 66.8412V56.7342C11.9361 56.1684 11.5408 55.8506 10.8355 55.8506H9.26987V54.1067H24.0738V59.447H22.3841C22.1516 57.5946 21.7873 55.8506 18.3227 55.8506H15.2457V60.7801H16.354C17.8732 60.7801 18.315 59.664 18.315 58.4471V58.1371H19.9581V65.3375H18.315V64.8182C18.315 63.1596 17.6794 62.524 16.2145 62.524H15.2457V66.7869C15.2457 67.6705 15.6487 67.996 16.7416 67.996H17.9197ZM74.8953 61.9272C74.8953 57.2225 78.2902 53.6339 83.4211 53.6339C88.5366 53.6339 91.9392 57.2225 91.9392 61.9272C91.9392 66.6242 88.5366 70.2438 83.4211 70.2438C78.2902 70.2438 74.8953 66.6242 74.8953 61.9272ZM88.2344 61.9272C88.2344 58.5557 87.126 55.4786 83.4211 55.4786C79.693 55.4786 78.5924 58.5557 78.5924 61.9272C78.5924 65.2988 79.693 68.3836 83.4211 68.3836C87.126 68.3836 88.2344 65.2988 88.2344 61.9272ZM68.9354 55.3372C68.9557 55.3556 68.9737 55.3718 68.9893 55.3856L69.5706 54.1067H71.2215V59.447H69.2838L69.2833 59.4457C68.9341 58.4912 67.9028 55.6724 64.8736 55.6724C61.9671 55.6724 60.4635 58.3851 60.4635 61.9272C60.4635 65.5236 61.9671 68.2208 64.9666 68.2208C67.3616 68.2208 68.4622 66.973 68.4622 65.1825V64.268C68.4622 63.5084 67.9894 63.1596 67.2144 63.1596H66.1448V61.4079H73.3684V63.1596H72.9344C72.0198 63.1596 71.6788 63.4076 71.6788 64.33V69.7555H70.0744L69.1985 68.5619C68.8343 68.8951 67.2376 70.2438 64.2923 70.2438C59.7116 70.2438 56.7586 66.7327 56.7586 61.9272C56.7586 57.1605 59.6651 53.6339 64.2923 53.6339C67.0512 53.6339 68.5113 54.9538 68.9354 55.3372ZM55.9758 66.5079V66.0816H54.4179V66.5079C54.4179 67.5543 54.1234 67.9961 53.5654 67.9961C52.9996 67.9961 52.6585 67.6395 52.6585 66.0351V65.1205C52.6585 62.7101 51.2634 62.028 49.6125 61.904V61.8652C51.0231 61.7877 54.0382 61.1909 54.0382 58.1604C54.0382 55.7189 52.4338 54.1067 49.0234 54.1067H38.746V55.8507H40.3891C41.1254 55.8507 41.3657 56.0754 41.3657 56.7032V67.1512C41.3657 67.779 41.0634 67.9961 40.3891 67.9961H39.7536C38.5057 67.9961 37.6996 67.8333 37.2733 66.7249L32.1578 54.1067H29.1583L24.1668 66.7249C23.725 67.8178 22.9345 67.9961 21.6866 67.9961V69.7555H29.0498V67.9961H27.3911C26.9261 67.9961 26.6471 67.8876 26.6471 67.5543C26.6471 67.3295 26.709 67.1357 26.7866 66.9032C26.9028 66.5932 27.5926 64.733 27.5926 64.733H33.1732C33.1732 64.733 33.9094 66.7482 33.9947 66.9575C34.0878 67.2132 34.1342 67.4535 34.1342 67.6008C34.1342 67.8798 33.9559 67.9961 33.4754 67.9961H31.7393V69.7555H47.3647V67.9961H45.6441C44.962 67.9961 44.6752 67.779 44.6752 67.1512V62.4233H45.9153C48.5351 62.4233 49.6822 63.5084 49.6822 66.1979V67.0117C49.6822 69.1432 50.4495 70.2438 52.736 70.2438C54.6892 70.2438 55.9758 69.2052 55.9758 66.5079ZM30.4216 57.3L32.5298 62.9968H28.2438L30.352 57.3H30.4216ZM47.5817 55.8507C49.7674 55.8507 50.7518 56.8893 50.7518 58.2611C50.7518 59.7725 49.5969 60.6794 47.5817 60.6794H44.6752V55.8507H47.5817Z" fill="#7F8184"/>
</g>
<defs>
<clipPath id="clip0_57688_14799">
<rect width="100" height="100" fill="white"/>
</clipPath>
</defs>
</svg>
