<svg width="100" height="62" viewBox="0 0 100 62" fill="none" xmlns="http://www.w3.org/2000/svg">
<path d="M16.802 12.384C15.0513 12.384 13.3012 12.4557 11.6534 12.6361C3.92986 13.4852 0 18.1307 0 23.6791C0 28.2439 3.31817 32.5457 9.52977 33.7389L17.0162 35.1728C19.7496 35.7038 21.1566 36.3145 21.1566 37.8009C21.1566 38.9423 20.0946 40.1378 16.5649 40.1378C13.3789 40.1378 9.0798 39.6596 6.3441 39.6596C3.71733 39.6596 0.930163 40.8548 0.930163 46.0303C0.930163 46.6675 1.03643 47.4642 1.16893 48.1005C5.09747 48.5531 13.3537 49.2701 19.0599 48.6584C26.9438 47.8092 30.8199 43.4819 30.8199 37.5356C30.8199 32.4129 27.6608 28.2446 20.3347 26.8914L13.1933 25.564C10.9102 25.1665 9.47763 24.6342 9.47763 23.3338C9.47763 22.1137 10.9899 21.1045 14.6286 21.1045C18.2111 21.1045 21.3433 21.4764 23.3607 21.4764C25.9888 21.4764 28.7231 20.3606 28.7231 15.1855C28.7231 14.4954 28.6424 13.8568 28.5113 13.1946C25.7095 12.8506 21.2556 12.3847 16.806 12.3847H16.802V12.384ZM56.0412 16.6443L44.0962 29.7051L53.7044 44.8361C55.4833 47.5964 57.8202 49.0021 61.6166 49.0021C64.1102 49.0021 66.1814 48.4196 67.1358 47.9693L55.5627 30.5273L63.7661 21.8208L77.2245 42.9515L69.02 60.2321C69.8446 60.6555 71.516 61.161 73.6131 61.2134C77.2248 61.2928 79.1884 59.913 80.6479 56.6742L100 13.5121C99.2047 13.0877 97.4257 12.6102 95.9908 12.5836C93.4972 12.5308 90.1521 13.0352 88.0281 18.131L81.7637 32.917L69.4736 12.9021C68.6773 12.6623 66.738 12.3186 65.3309 12.3186C60.9783 12.3179 58.5631 13.9099 56.0412 16.6443ZM33.9428 6.55763V48.7653C34.6329 48.8696 35.3498 48.9234 36.1731 48.9234C42.3837 48.9234 43.6327 47.092 43.6327 43.906V0.239764C42.8878 0.0796998 42.0911 0 41.2948 0C35.0304 0 33.9428 3.34606 33.9428 6.55763Z" fill="#7F8184"/>
</svg>
