<svg width="100" height="25" viewBox="0 0 100 25" fill="none" xmlns="http://www.w3.org/2000/svg">
<path d="M53.7874 7.53031V13.3973C53.7874 14.0897 53.6781 14.782 53.423 15.438C53.1679 16.0939 52.7671 16.677 52.2569 17.1507C51.8196 17.6244 51.273 17.9888 50.6535 18.2439C50.0704 18.499 49.4145 18.6083 48.7586 18.6083C48.0662 18.6448 47.3738 18.499 46.7543 18.2439C46.0984 17.9888 45.5518 17.588 45.0416 17.1142C44.5679 16.6405 44.167 16.0939 43.9119 15.438C43.6569 14.8185 43.5111 14.1261 43.5475 13.4702V7.20234C43.5475 6.98369 43.584 6.76505 43.6204 6.5464C43.6933 6.32776 43.8026 6.14555 43.9484 5.99979C44.0941 5.85403 44.2399 5.7447 44.4221 5.67182C44.6043 5.59894 44.7865 5.5625 45.0052 5.5625C45.1874 5.5625 45.3696 5.59894 45.5518 5.67182C45.734 5.7447 45.8797 5.85403 46.0255 5.96335C46.1713 6.10911 46.2806 6.32776 46.3535 6.5464C46.4264 6.76505 46.4628 6.98369 46.4628 7.20234V13.4702C46.4628 13.7617 46.4992 14.0897 46.6086 14.3447C46.7179 14.6363 46.9001 14.8914 47.0823 15.11C47.3009 15.3286 47.556 15.5109 47.8476 15.6202C48.1391 15.7295 48.4306 15.8024 48.7221 15.7659C49.2687 15.7659 49.7789 15.5473 50.1798 15.1829C50.3984 14.9642 50.5806 14.6727 50.7264 14.3447C50.8721 14.0168 50.9086 13.6888 50.8721 13.3608V7.1659C50.8721 6.94725 50.8721 6.72861 50.945 6.5464C51.0179 6.32776 51.1272 6.14555 51.273 5.99979C51.4188 5.85403 51.5645 5.7447 51.7467 5.67182C51.9289 5.59894 52.1111 5.5625 52.2933 5.5625C52.5484 5.5625 52.8035 5.59894 53.0222 5.7447C53.2408 5.89047 53.423 6.07267 53.5688 6.29132C53.751 6.69217 53.8239 7.12946 53.7874 7.53031Z" fill="#7F8184"/>
<path d="M61.8412 5.48779C62.8616 5.45135 63.8819 5.70644 64.7565 6.25305C65.4853 6.72678 65.8497 7.27339 65.8497 7.82001C65.8497 8.00221 65.8497 8.22085 65.7769 8.40306C65.704 8.58526 65.6311 8.76747 65.4853 8.91323C65.376 9.02255 65.2302 9.13187 65.0845 9.20476C64.9387 9.27764 64.7565 9.31408 64.5743 9.31408C64.3192 9.31408 64.1006 9.20476 63.9184 9.05899C63.6997 8.87679 63.4811 8.73103 63.2624 8.54882C62.8616 8.18441 62.3514 7.96577 61.8412 7.92933C61.4768 7.92933 61.1124 8.03865 60.8209 8.2573C60.7116 8.36662 60.6023 8.47594 60.5294 8.6217C60.4565 8.76747 60.42 8.91323 60.42 9.05899C60.42 9.64205 60.9302 10.0429 61.9506 10.298C63.554 10.6988 64.6472 11.1726 65.3031 11.7192C66.1048 12.3751 66.5057 13.2861 66.5057 14.4522C66.5057 14.9989 66.3963 15.5455 66.2141 16.0556C65.9955 16.5658 65.6675 17.0031 65.2667 17.4039C64.3921 18.2056 63.226 18.6065 62.0599 18.5701C60.8209 18.6065 59.6183 18.2421 58.598 17.5497C57.7234 16.9302 57.2861 16.2378 57.2861 15.4726C57.2861 15.1082 57.4319 14.7438 57.687 14.4887C57.7963 14.3429 57.9421 14.2336 58.1243 14.1607C58.3065 14.0878 58.4522 14.0514 58.6344 14.0514C59.0717 14.0514 59.5819 14.3065 60.1285 14.7802C60.8573 15.4361 61.5133 15.7641 62.0599 15.7641C62.4607 15.7641 62.8616 15.6548 63.1531 15.3633C63.2989 15.2175 63.4082 15.0717 63.4811 14.8895C63.554 14.7073 63.5904 14.5251 63.5904 14.3429C63.5904 13.8692 63.3353 13.5412 62.8251 13.2861C62.2056 13.031 61.5497 12.8124 60.8938 12.6302C59.7641 12.3022 58.9624 11.9014 58.4522 11.4641C58.1607 11.1726 57.9056 10.8446 57.7599 10.4437C57.6141 10.0429 57.5412 9.64205 57.5777 9.2412C57.5777 8.73103 57.6505 8.18441 57.8692 7.71068C58.0878 7.23695 58.3794 6.79966 58.7802 6.47169C59.509 5.8522 60.5658 5.48779 61.8412 5.48779Z" fill="#7F8184"/>
<path d="M72.6279 7.20234V10.5913H77.2923V7.20234C77.2923 6.98369 77.2923 6.76505 77.3652 6.58284C77.438 6.3642 77.5474 6.18199 77.6931 6.03623C77.8389 5.89047 77.9847 5.78114 78.1669 5.70826C78.3491 5.63538 78.5313 5.59894 78.7499 5.59894C78.9321 5.59894 79.1508 5.63538 79.2965 5.70826C79.4787 5.78114 79.6245 5.89047 79.7703 6.03623C80.0618 6.3642 80.2075 6.80149 80.1711 7.23878V16.932C80.1711 17.1507 80.1711 17.3693 80.0982 17.588C80.0253 17.8066 79.916 17.9888 79.7703 18.1346C79.6245 18.2804 79.4787 18.3897 79.2965 18.4626C79.1143 18.5354 78.9321 18.5719 78.7499 18.5719C78.5677 18.5719 78.3491 18.5354 78.2033 18.4626C78.0211 18.3897 77.8753 18.2804 77.7296 18.1346C77.5838 17.9888 77.4745 17.7702 77.4016 17.588C77.3287 17.3693 77.2923 17.1507 77.2923 16.932V13.3244H72.6279V16.932C72.6279 17.1507 72.6279 17.3693 72.555 17.588C72.4821 17.8066 72.3728 17.9888 72.227 18.1346C72.0812 18.2804 71.9355 18.3897 71.7533 18.4626C71.5711 18.5354 71.3889 18.5719 71.2067 18.5719C71.0245 18.5719 70.8058 18.5354 70.66 18.4626C70.4778 18.3897 70.3321 18.2804 70.1863 18.1346C70.0406 17.9888 69.9312 17.7702 69.8583 17.588C69.7855 17.3693 69.749 17.1507 69.749 16.932V7.20234C69.749 6.98369 69.7855 6.76505 69.8583 6.5464C69.9312 6.32776 70.0406 6.14555 70.1863 5.99979C70.3321 5.85403 70.4778 5.7447 70.66 5.67182C70.8422 5.59894 71.0245 5.5625 71.2431 5.5625C71.4253 5.5625 71.6075 5.59894 71.7897 5.67182C71.9719 5.7447 72.1177 5.85403 72.2634 5.96335C72.4092 6.10911 72.5185 6.32776 72.5914 6.50996C72.5914 6.76505 72.6279 6.98369 72.6279 7.20234Z" fill="#7F8184"/>
<path d="M93.1441 8.332L89.5729 11.9032L93.6907 15.7659C94.2374 16.2761 94.4924 16.7498 94.4924 17.1507C94.4924 17.3329 94.456 17.5151 94.3831 17.6973C94.3102 17.8795 94.2009 18.0253 94.0551 18.171C93.9094 18.3168 93.7636 18.3897 93.5814 18.4626C93.3992 18.5354 93.217 18.5719 93.0348 18.5719C92.6704 18.5719 92.1967 18.3532 91.7229 17.8795L86.9492 13.3244V16.9685C86.9492 17.1871 86.9127 17.4058 86.8763 17.6244C86.8034 17.8431 86.6941 18.0253 86.5483 18.171C86.4026 18.3168 86.2568 18.4261 86.0746 18.499C85.8924 18.5719 85.7102 18.6083 85.528 18.6083C85.3458 18.6083 85.1271 18.5719 84.9449 18.499C84.7627 18.4261 84.617 18.3168 84.4712 18.171C84.3254 18.0253 84.2161 17.8066 84.1432 17.6244C84.0704 17.4422 84.0339 17.1871 84.0339 16.9685V7.20234C83.9975 6.76505 84.1797 6.32776 84.4712 5.99979C84.617 5.85403 84.7627 5.7447 84.9449 5.67182C85.1271 5.59894 85.3093 5.5625 85.528 5.5625C85.7102 5.5625 85.8924 5.59894 86.0746 5.67182C86.2568 5.7447 86.4026 5.85403 86.5483 5.99979C86.8399 6.32776 87.0221 6.80149 86.9856 7.23878V10.5549L91.1763 6.29132C91.6501 5.81759 92.1238 5.5625 92.5246 5.5625C92.7068 5.5625 92.889 5.59894 93.0712 5.67182C93.2534 5.7447 93.3992 5.85403 93.545 5.99979C93.6907 6.14555 93.8001 6.29132 93.8365 6.47352C93.9094 6.65572 93.9458 6.83793 93.9458 7.02013C93.9094 7.38454 93.6543 7.82183 93.1441 8.332Z" fill="#7F8184"/>
<path d="M97.1152 16.8956V7.20234C97.1152 6.98369 97.1152 6.76505 97.1881 6.5464C97.261 6.32776 97.3703 6.14555 97.5161 5.99979C97.7712 5.7447 98.1356 5.5625 98.5364 5.5625C98.9008 5.5625 99.3017 5.70826 99.5568 5.96335C99.8483 6.29132 99.9941 6.72861 99.9941 7.1659V16.8592C100.03 17.2965 99.8847 17.7337 99.5932 18.0617C99.4474 18.2075 99.3017 18.3168 99.1195 18.3897C98.9373 18.4626 98.7551 18.499 98.5729 18.499C98.3907 18.499 98.172 18.4626 98.0263 18.3897C97.8441 18.3168 97.6983 18.2075 97.5525 18.0617C97.4068 17.9159 97.2974 17.6973 97.2246 17.5151C97.1517 17.3329 97.1152 17.1142 97.1152 16.8956Z" fill="#7F8184"/>
<path d="M29.5182 18.421C29.336 18.421 29.1538 18.3845 28.9716 18.3117C28.7894 18.2388 28.6436 18.1295 28.4978 17.9837C28.3521 17.8379 28.2428 17.6922 28.1699 17.51C28.097 17.3278 28.0605 17.1455 28.0605 16.9633V7.16076C28.0605 6.75991 28.2063 6.3955 28.4978 6.14042C28.7529 5.84889 29.1538 5.70312 29.5182 5.70312C29.919 5.70312 30.2834 5.84889 30.5385 6.14042C30.7936 6.43194 30.9758 6.79635 30.9758 7.16076V16.9633C30.9758 17.1455 30.9394 17.3642 30.8665 17.51C30.7936 17.6922 30.6843 17.8379 30.5385 17.9837C30.3928 18.1295 30.247 18.2388 30.0648 18.3117C29.919 18.3845 29.7004 18.421 29.5182 18.421Z" fill="#7F8184"/>
<path d="M42.8916 23.1294C42.5272 23.1294 42.1628 22.9837 41.8713 22.7286L31.8865 12.9625C31.595 12.7074 31.4492 12.3065 31.4492 11.9421C31.4492 11.5413 31.595 11.1769 31.8501 10.8853L36.7696 5.67429C37.0247 5.4192 37.3891 5.27344 37.7899 5.27344C38.1543 5.27344 38.5187 5.4192 38.8103 5.67429C39.0654 5.92937 39.2476 6.29378 39.2476 6.65819C39.2476 7.0226 39.1382 7.42345 38.8831 7.67853L34.9475 11.8328L43.912 20.5786C44.1306 20.7972 44.2764 21.0523 44.3128 21.3438C44.3857 21.6354 44.3493 21.9269 44.24 22.2184C44.1306 22.4735 43.9484 22.7286 43.6933 22.8744C43.4747 23.0201 43.1832 23.1294 42.8916 23.1294Z" fill="#7F8184"/>
<path d="M21.2823 4.68587L12.2085 14.2334C11.9534 14.4885 11.6255 14.6342 11.2975 14.6342C10.9331 14.6342 10.6051 14.5249 10.35 14.2698L5.6856 9.78759C5.53984 9.67826 5.43051 9.5325 5.35763 9.3503C5.28475 9.20453 5.21187 9.02233 5.21187 8.84012C5.21187 8.65792 5.21187 8.47571 5.28475 8.29351C5.35763 8.11131 5.43051 7.96554 5.57628 7.81978C5.6856 7.67402 5.8678 7.56469 6.01357 7.49181C6.19577 7.41893 6.34154 7.38249 6.52374 7.38249C6.70594 7.38249 6.88815 7.41893 7.03391 7.49181C7.21612 7.56469 7.36188 7.67402 7.4712 7.81978L11.1882 11.391L19.4967 2.79094C17.1645 0.823138 14.1763 -0.160764 11.1517 0.0214397C8.12714 0.203644 5.24831 1.55196 3.20762 3.81129C1.1305 6.07062 -0.0356116 9.02233 0.000829218 12.0834C0.0372701 15.1444 1.20338 18.0961 3.31695 20.319C5.43052 22.5419 8.2729 23.8538 11.3339 23.9995C14.3585 24.1453 17.3467 23.1249 19.6424 21.1207C21.9382 19.1164 23.3958 16.3105 23.7238 13.2495C24.0153 10.1884 23.1408 7.1274 21.2823 4.68587ZM15.7797 17.7317H7.03391C6.6695 17.7317 6.34154 17.5859 6.12289 17.3308C5.8678 17.0758 5.72204 16.7478 5.72204 16.3834C5.72204 16.019 5.8678 15.691 6.12289 15.4359C6.37798 15.1808 6.70594 15.0351 7.03391 15.0351H15.7797C16.1441 15.0351 16.4721 15.1808 16.6907 15.4359C16.9094 15.691 17.0916 16.019 17.0916 16.3834C17.0916 16.7478 16.9458 17.0758 16.6907 17.3308C16.4721 17.5859 16.1441 17.7317 15.7797 17.7317Z" fill="#7F8184"/>
</svg>
