<svg width="100" height="29" viewBox="0 0 100 29" fill="none" xmlns="http://www.w3.org/2000/svg">
<path fill-rule="evenodd" clip-rule="evenodd" d="M69.1209 21.2336C67.6209 22.8427 65.6945 23.66 63.3963 23.66C61.0972 23.66 59.1709 22.8427 57.6718 21.2336C56.24 19.7009 55.4172 17.25 55.4172 14.5118C55.4172 11.8391 56.2491 9.42181 57.6963 7.87818C59.2109 6.26909 61.1281 5.44818 63.3945 5.44181C65.6645 5.44818 67.5818 6.26909 69.0954 7.87818C70.5445 9.42181 71.3745 11.8391 71.3745 14.5118C71.3745 17.25 70.5527 19.7009 69.1209 21.2336ZM48.9936 14.5118C48.9936 14.6354 48.9991 14.7573 49.0027 14.8791C46.7027 12.7854 43.3772 12.0064 41.3454 11.6C37.5863 10.8073 34.7145 10.0818 34.7145 7.40545C34.7145 5.51727 36.4054 4.14363 39.6536 4.37909C42.6218 4.59454 43.8718 6.40909 44.2145 8.15999C44.2636 8.44727 44.3963 8.65636 44.7236 8.65908L50.0618 8.70454C50.0872 8.70454 50.1091 8.70181 50.1318 8.69999C49.3791 10.4554 48.9936 12.41 48.9936 14.5118ZM39.9145 24.3318C37.3327 24.3318 34.4882 23.4145 33.8327 19.8654C33.7772 19.5263 33.6173 19.3863 33.3573 19.3791L28.1963 19.31V10.1873C28.8745 12.8609 31.1209 14.7118 35.9791 15.8054C39.2309 16.5836 44.8718 17.0782 44.8718 20.4163C44.8718 22.7436 43.1582 24.3863 39.9145 24.3318ZM14.2091 23.6636C10.0454 23.6636 6.2309 20.3863 6.2309 14.5154C6.2309 9.90908 9.0909 5.44545 14.2364 5.44545C16.4654 5.44545 22.1173 6.20909 22.1173 14.5154C22.1173 22.8436 16.2164 23.6636 14.2082 23.6636H14.2091ZM77.6445 12.2745C78.829 13.8545 80.9672 15.0245 84.4409 15.8064C87.6918 16.5845 93.3336 17.0791 93.3336 20.4173C93.3336 22.7445 91.619 24.3873 88.3763 24.3327C85.7954 24.3327 82.949 23.4154 82.2945 19.8663C82.2399 19.5273 82.0799 19.3873 81.819 19.38L77.0372 19.3163C77.5418 17.8282 77.799 16.2164 77.799 14.5127C77.7988 13.764 77.7471 13.0162 77.6445 12.2745ZM88.0236 28.9782C93.7499 28.9782 100.499 26.8463 99.9708 19.9318C99.3872 13.7936 92.9999 12.2391 89.8072 11.6009C86.0472 10.8082 83.1754 10.0827 83.1754 7.40636C83.1754 5.51818 84.8663 4.14454 88.1154 4.38C91.0836 4.59545 92.3336 6.41 92.6763 8.1609C92.7254 8.44818 92.859 8.65727 93.1854 8.65999L98.5236 8.70545C98.9299 8.70818 99.0563 8.49727 99.0054 8.20818C97.9599 1.81 92.6145 0 87.6954 0C82.7836 0 76.8654 1.38 76.4454 7.48999C76.4309 7.72636 76.4254 7.95908 76.4254 8.18727C75.6436 6.56181 74.5163 5.06909 73.0636 3.74727C70.3818 1.32909 67.0381 0.0336363 63.3918 0.00181818H63.2709C61.529 0.00181818 59.8245 0.322727 58.2036 0.95909C56.556 1.61077 55.04 2.5554 53.7291 3.74727C52.3536 4.99818 51.2672 6.40181 50.4909 7.92636C49.3345 1.76 44.0781 0 39.2327 0C34.7236 0 29.3654 1.16636 28.1963 6.0909V1.20273C28.1961 1.07751 28.1462 0.957502 28.0576 0.869045C27.9689 0.780588 27.8488 0.730908 27.7236 0.730909H22.6963C22.5711 0.731149 22.4511 0.781061 22.3627 0.869688C22.2742 0.958315 22.2245 1.07842 22.2245 1.20364V2.52182C22.2245 2.74363 22.0763 2.82091 21.8954 2.69182C20.1073 1.39454 17.4618 0.00272727 14.2782 0.00272727C12.4891 0.00272727 10.7809 0.317273 9.19999 0.937272C7.61818 1.55909 6.11454 2.50545 4.73454 3.75091C3.16363 5.18 1.96727 6.80909 1.18273 8.59272C0.398182 10.3764 0 12.3691 0 14.5145C0 16.5173 0.352727 18.3954 1.04727 20.0927C1.74182 21.79 2.79909 23.36 4.19091 24.76C5.58181 26.16 7.13818 27.2236 8.81363 27.9236C10.4891 28.6209 12.3354 28.9745 14.3045 28.9745C17.6882 28.9745 20.2273 27.5336 21.8909 26.2236C22.0745 26.0836 22.2245 26.1591 22.2245 26.3882V27.7727C22.2245 28.0327 22.4373 28.2454 22.6973 28.2454H27.7245C27.8497 28.245 27.9695 28.195 28.0579 28.1064C28.1463 28.0178 28.1961 27.8978 28.1963 27.7727V23.1091C30.5663 28.6818 36.6054 28.9773 39.5618 28.9773C44.5036 28.9773 50.2027 27.3863 51.3336 22.5063C51.8773 23.314 52.4974 24.0675 53.1854 24.7563C55.88 27.4682 59.4109 28.9263 63.4009 28.97H63.5645C65.459 28.97 67.2872 28.6063 68.9981 27.8873C70.7255 27.1569 72.2917 26.0929 73.6072 24.7563C74.5913 23.7753 75.4318 22.66 76.1036 21.4436C77.8954 28.6282 84.7972 28.9782 88.0236 28.9782Z" fill="#7F8184"/>
</svg>
