<svg width="100" height="31" viewBox="0 0 100 31" fill="none" xmlns="http://www.w3.org/2000/svg">
<mask id="mask0_57688_14860" style="mask-type:luminance" maskUnits="userSpaceOnUse" x="0" y="0" width="100" height="31">
<path d="M100 0H0V30.978H100V0Z" fill="white"/>
</mask>
<g mask="url(#mask0_57688_14860)">
<path d="M17.587 3.98438L14.3916 8.32545H31.805C32.685 8.32545 32.6738 8.65987 32.2434 9.24284C31.8066 9.83435 31.0753 10.8632 30.6305 11.4643C30.4049 11.7694 29.9963 12.3252 31.3495 12.3252H38.4705C38.4705 12.3252 39.6183 10.7635 40.5805 9.45726C41.8894 7.68114 40.6941 3.98491 36.0149 3.98491H17.587V3.98438Z" fill="#7F8184"/>
<path d="M13.099 18.1261L19.5164 9.40606H27.4802C28.3602 9.40606 28.349 9.74048 27.9186 10.3234C27.4818 10.915 26.7388 11.9332 26.2934 12.5343C26.0673 12.8393 25.6592 13.3956 27.0124 13.3956H37.6813C36.7938 14.6112 33.9158 18.1261 28.748 18.1261H13.099ZM49.8528 13.3946L46.3726 18.1261H37.1922C37.1922 18.1261 40.6703 13.3956 40.6735 13.3956L49.8528 13.3946ZM63.9161 12.3246H41.4619L47.602 3.98438H56.7796L53.2599 8.76655H57.3562L60.877 3.98438H70.0536L63.915 12.3246H63.9161ZM63.1283 13.3962L59.6465 18.1266H50.4699C50.4699 18.1266 53.948 13.3962 53.9512 13.3962H63.1288H63.1283ZM0 15.2614H13.5241L12.7854 16.2662H0V15.2614ZM0 13.3962H14.898L14.1577 14.4H0V13.3962ZM0 17.1276H12.1512L11.4162 18.1261H0V17.1276ZM100.006 16.2662H86.5341L87.2733 15.2614H100.006V16.2662H100.006ZM100.006 18.1266L85.1644 18.1282L85.8999 17.1281H100.006V18.1266ZM88.6457 13.3962H100.006V14.4L87.907 14.401L88.6457 13.3962ZM82.7642 3.98438L76.6252 12.3246H66.9003C66.9003 12.3246 73.0409 3.98438 73.0441 3.98438H82.7642ZM66.1136 13.3962C66.1136 13.3962 65.4426 14.313 65.1172 14.7536C63.9646 16.3116 64.9834 18.1266 68.7452 18.1266H83.4843L86.9656 13.3962H66.1141H66.1136Z" fill="#7F8184"/>
</g>
<path d="M33.5811 30.8396H36.5908L37.0709 30.1884H34.8313L36.0873 28.4864H38.1269L38.6075 27.8351H36.5679L37.6816 26.3257H39.9217L40.4023 25.6745H37.3925L33.5811 30.8396ZM37.2746 30.8396H38.1984L41.3469 28.6496L41.316 30.8396H42.2856L42.2925 28.1386L45.9194 25.6745H45.0421L42.1549 27.6575L42.1864 25.6745H41.2626L41.2349 28.1536L37.2746 30.8396ZM47.0849 26.3263H47.7388C48.2161 26.3263 48.7495 26.5631 48.2689 27.2138C47.7665 27.8944 46.9968 28.1237 46.5195 28.1237H45.7573L47.0843 26.3257L47.0849 26.3263ZM42.9843 30.8396H43.754L45.2773 28.7749H46.0315C47.0011 28.7749 48.2332 28.368 49.0791 27.2207C49.9474 26.0441 49.3042 25.6739 48.2039 25.6739H46.7952L42.9838 30.8391L42.9843 30.8396ZM47.4166 30.8396H48.1863L49.8792 28.5456H50.3405C50.7486 28.5456 51.003 28.5456 50.8702 29.0486L50.3725 30.8396H51.2499L51.7518 28.7824C51.8174 28.4645 51.7838 28.3536 51.6105 28.2645L51.6217 28.2496C52.3215 28.1456 53.1343 27.7018 53.5983 27.073C54.5099 25.8377 53.6069 25.6745 52.5439 25.6745H51.2275L47.4161 30.8396H47.4166ZM51.5177 26.3263H52.2564C52.9647 26.3263 53.1156 26.6223 52.7716 27.0884C52.4057 27.5845 51.7454 27.8949 51.0136 27.8949H50.3592L51.5171 26.3263H51.5177ZM52.0473 30.8396H55.0571L55.5371 30.1884H53.2975L54.5536 28.4864H56.5937L57.0738 27.8351H55.0342L56.1478 26.3257H58.388L58.8685 25.6745H55.8588L52.0473 30.8396ZM62.576 25.771C62.2992 25.6451 61.9194 25.5859 61.5652 25.5859C60.5956 25.5859 59.4808 26.0745 58.8035 26.9919C57.6183 28.5979 60.1625 28.2794 59.3107 29.4342C58.8627 30.0406 58.0722 30.2774 57.6338 30.2774C57.2412 30.2774 56.8887 30.1292 56.7036 30.0257L56.119 30.7143C56.3916 30.8252 56.6844 30.9292 57.0615 30.9292C58.1389 30.9292 59.3464 30.4918 60.1598 29.3894C61.4154 27.6879 58.9368 27.9168 59.6691 26.9252C60.0681 26.3855 60.6852 26.2372 61.1162 26.2372C61.5167 26.2372 61.6826 26.3038 61.9658 26.4516L62.576 25.771ZM66.4248 25.771C66.1485 25.6451 65.7687 25.5859 65.414 25.5859C64.4444 25.5859 63.3296 26.0745 62.6523 26.9919C61.4671 28.5979 64.0113 28.2794 63.1595 29.4342C62.712 30.0406 61.9215 30.2774 61.4826 30.2774C61.0895 30.2774 60.7369 30.1292 60.5524 30.0257L59.9673 30.7143C60.2393 30.8252 60.5326 30.9292 60.9097 30.9292C61.9871 30.9292 63.1947 30.4918 64.0081 29.3894C65.2641 27.6879 62.7856 27.9168 63.5174 26.9252C63.9163 26.3855 64.5334 26.2372 64.9644 26.2372C65.365 26.2372 65.5314 26.3038 65.814 26.4516L66.4242 25.771H66.4248Z" fill="#7F8184"/>
</svg>
