<svg width="100" height="58" viewBox="0 0 100 58" fill="none" xmlns="http://www.w3.org/2000/svg">
<g clip-path="url(#clip0_57688_14793)">
<path d="M100 25.6518V31.5182H80.9595V2.00155H87.6632V25.651H100V25.6518ZM11.9643 31.5173C18.8322 31.5173 24.6044 26.8259 26.251 20.473L42.9492 33.5189L59.6365 20.4813V31.5173H78.6771V25.651H66.3403V2.00155H59.6365V13.0376L43.6291 25.5435L40.0493 22.7462L47.7122 16.759L56.0559 10.2402L51.292 6.51795L35.2846 19.0239L31.7048 16.2274L47.7122 3.72145L42.9492 0L26.251 13.0459C24.6044 6.69294 18.8322 2.00155 11.9643 2.00155H0V31.5173H11.9643ZM6.70378 25.6518V7.86787H11.9643C16.4124 7.86787 20.018 11.8493 20.018 16.7599C20.018 21.6704 16.4124 25.6518 11.9643 25.6518H6.70378Z" fill="#7F8184"/>
<path d="M99.9992 50.5605C99.9992 48.7956 99.0184 48.0115 97.0568 47.619C95.0961 47.2274 93.9204 47.0307 93.9204 45.6583C93.9204 44.6783 94.7045 44.0892 96.0777 44.0892C97.8426 44.0892 98.4309 44.8733 98.4309 45.8541L98.6268 46.0499H99.4109L99.6075 45.8541C99.6075 43.8934 98.0376 43.1084 96.0769 43.1084C93.9195 43.1084 92.7438 44.2859 92.7438 45.6583C92.7438 47.2274 93.9204 48.0115 95.8802 48.4031C97.8418 48.7956 98.8217 48.9914 98.8217 50.5605C98.8217 51.5404 98.2343 52.3254 96.2727 52.3254C94.5078 52.3254 93.7237 51.3446 93.7237 50.168L93.5279 49.9722H92.7438L92.5479 50.168C92.5479 51.9329 93.9204 53.3053 96.2736 53.3053C98.8226 53.3053 99.9992 52.1296 99.9992 50.5605ZM91.568 48.5998L91.763 48.4031V47.8157C91.763 45.07 90.1939 43.1084 87.4491 43.1084C84.7042 43.1084 83.1352 45.07 83.1352 47.8157V48.2073C83.1352 50.9521 84.5084 53.3053 87.6457 53.3053C90.3906 53.3053 91.3713 51.5404 91.568 50.3638L91.3713 50.168H90.5872L90.3914 50.3638C89.9989 51.5413 89.214 52.3254 87.6466 52.3254C85.0967 52.3254 84.3126 49.9722 84.3126 48.7956L84.5092 48.5998H91.568ZM90.3906 47.619H84.5076L84.3109 47.4232C84.3109 46.0499 85.095 44.09 87.4482 44.09C89.8014 44.09 90.5856 46.0508 90.5856 47.4232L90.3906 47.619ZM81.7619 52.9137V43.5001L81.5661 43.3043H80.782L80.5861 43.5001V52.9137L80.782 53.1095H81.5661L81.7619 52.9137ZM81.7619 41.5394V40.3628L81.5661 40.1669H80.782L80.5861 40.3628V41.5394L80.782 41.736H81.5661L81.7619 41.5394ZM74.3115 52.3254C72.3499 52.3254 71.1734 50.9521 71.1734 48.2073C71.1734 45.4616 72.3508 44.0892 74.3115 44.0892C76.2714 44.0892 77.448 45.4616 77.448 48.2073C77.448 50.9521 76.2714 52.3254 74.3115 52.3254ZM77.448 51.7371C77.448 54.2861 76.8597 56.2477 74.5065 56.2477C72.7416 56.2477 72.1533 55.4635 71.9575 54.4828L71.7617 54.2861H70.9775L70.7817 54.4828C70.9775 56.0518 72.1541 57.2276 74.5073 57.2276C77.0572 57.2276 78.6254 55.6585 78.6254 51.7371V43.5001L78.4296 43.3043H77.8413L77.6455 43.5001L77.4497 44.6783H77.253C76.8614 43.8942 75.8806 43.1084 74.1157 43.1084C71.3708 43.1084 69.9976 45.2658 69.9976 48.2073C69.9976 51.148 71.3708 53.3053 74.1157 53.3053C75.8814 53.3053 76.8614 52.522 77.253 51.7363H77.448V51.7371ZM64.7029 44.0892C66.6636 44.0892 68.0352 45.6583 68.0352 48.2073C68.0352 50.7563 66.6628 52.3254 64.7029 52.3254C62.7413 52.3254 61.3689 50.7563 61.3689 48.2073C61.3681 45.6583 62.7413 44.0892 64.7029 44.0892ZM64.7029 53.3053C67.2519 53.3053 69.2126 51.5404 69.2126 48.2073C69.2126 44.8733 67.2519 43.1084 64.7029 43.1084C62.153 43.1084 60.1923 44.8742 60.1923 48.2073C60.1923 51.5413 62.1522 53.3053 64.7029 53.3053ZM58.8191 52.9137V39.5786L58.6233 39.3828H57.8391L57.6425 39.5786V52.9137L57.8391 53.1095H58.6233L58.8191 52.9137ZM51.7603 44.0892C53.721 44.0892 55.0943 45.6583 55.0943 48.2073C55.0943 50.7563 53.721 52.3254 51.7603 52.3254C49.7988 52.3254 48.4255 50.7563 48.4255 48.2073C48.4255 45.6583 49.7988 44.0892 51.7603 44.0892ZM51.7603 53.3053C54.3093 53.3053 56.2709 51.5404 56.2709 48.2073C56.2709 44.8733 54.3093 43.1084 51.7603 43.1084C49.2113 43.1084 47.2497 44.8742 47.2497 48.2073C47.2497 51.5413 49.2113 53.3053 51.7603 53.3053ZM46.0731 52.9137V47.0299C46.0731 44.4808 44.7007 43.1076 42.5434 43.1076C41.1701 43.1076 39.9935 43.6967 39.406 44.6775H39.2094L39.0144 43.4992L38.8177 43.3034H38.2294L38.0336 43.4992V52.9129L38.2294 53.1087H39.0144L39.2094 52.9129V47.6182C39.2094 45.4608 40.1902 44.0884 42.3467 44.0884C43.9158 44.0884 44.8957 45.0683 44.8957 47.029V52.9129L45.0924 53.1087H45.8765L46.0731 52.9137ZM36.0721 52.9137V47.0299C36.0721 44.4808 34.6988 43.1076 32.5423 43.1076C31.169 43.1076 29.9933 43.6967 29.405 44.6775H29.2091V39.5786L29.0133 39.3828H28.2292L28.0317 39.5786V52.9137L28.2284 53.1095H29.0125L29.2083 52.9137V47.619C29.2083 45.4616 30.1891 44.0892 32.3456 44.0892C33.9147 44.0892 34.8946 45.0691 34.8946 47.0299V52.9137L35.0905 53.1095H35.8754L36.0721 52.9137ZM19.208 48.2073C19.208 45.4616 20.5805 44.0892 22.542 44.0892C24.5027 44.0892 25.2869 45.2658 25.4827 46.4416L25.6785 46.6382H26.4635L26.6593 46.4416C26.4635 44.4808 24.8936 43.1076 22.5412 43.1076C19.9922 43.1076 18.0314 44.6775 18.0314 48.2065C18.0314 51.7363 19.9922 53.3045 22.5412 53.3045C24.8936 53.3045 26.4635 51.9312 26.6593 49.9714L26.4635 49.7755H25.6785L25.4827 49.9714C25.2869 51.1471 24.5027 52.3246 22.542 52.3246C20.5805 52.3254 19.208 50.9521 19.208 48.2073ZM17.0507 48.5998L17.2473 48.4031V47.8157C17.2473 45.07 15.6774 43.1084 12.9317 43.1084C10.1877 43.1084 8.61783 45.07 8.61783 47.8157V48.2073C8.61783 50.9521 9.99108 53.3053 13.1284 53.3053C15.8732 53.3053 16.854 51.5404 17.0507 50.3638L16.854 50.168H16.0707L15.8741 50.3638C15.4824 51.5413 14.6975 52.3254 13.1292 52.3254C10.5802 52.3254 9.79526 49.9722 9.79526 48.7956L9.99108 48.5998H17.0507ZM15.8741 47.619H9.99108L9.79526 47.4232C9.79526 46.0499 10.5794 44.09 12.9317 44.09C15.2858 44.09 16.0699 46.0508 16.0699 47.4232L15.8741 47.619ZM10.5902 40.1669V39.5786L10.3944 39.3828H0.196655L0 39.5786V40.1669L0.196655 40.3628H4.51057L4.70639 40.5586V52.9137L4.90305 53.1095H5.68717L5.88299 52.9137V40.5594L6.07881 40.3636H10.3936L10.5902 40.1669Z" fill="#7F8184"/>
</g>
<defs>
<clipPath id="clip0_57688_14793">
<rect width="100" height="57.23" fill="white"/>
</clipPath>
</defs>
</svg>
