<svg xmlns="http://www.w3.org/2000/svg" width="239" height="57" fill="none"><path fill="#fff" d="M60.477 11.046a5.96 5.96 0 0 0-3.29-.89 5.3 5.3 0 0 0-2.96.786V6.148h-3.333v17.44h2.915v-.757c.09.075.18.149.284.208.882.609 1.959.905 3.274.905a5.6 5.6 0 0 0 3.17-.905 6.3 6.3 0 0 0 2.122-2.464c.524-1.098.778-2.3.763-3.517a7.64 7.64 0 0 0-.778-3.548 5.95 5.95 0 0 0-2.167-2.449zm-.882 8.015a3.16 3.16 0 0 1-1.002 1.44 2.75 2.75 0 0 1-1.75.534 2.85 2.85 0 0 1-1.763-.504 2.84 2.84 0 0 1-.957-1.396 6.5 6.5 0 0 1-.284-2.078c0-.712.09-1.41.284-2.077.165-.55.493-1.04.927-1.396a2.66 2.66 0 0 1 1.66-.49 2.9 2.9 0 0 1 1.808.535c.479.37.852.876 1.047 1.44.239.638.344 1.306.344 1.989 0 .682-.105 1.365-.33 2.003zm14.486-2.39a10 10 0 0 0-2.407-.905c-1.017-.252-1.779-.46-2.272-.623a2.8 2.8 0 0 1-.987-.475 1 1 0 0 1-.18-.252.8.8 0 0 1-.06-.312.95.95 0 0 1 .15-.52c.105-.148.24-.282.404-.356a2.6 2.6 0 0 1 1.465-.237 2.75 2.75 0 0 1 1.48.49c.18.133.329.311.434.504s.179.416.194.638l3.379-.608a4.1 4.1 0 0 0-.912-2.063A4.74 4.74 0 0 0 72.84 10.6a7.4 7.4 0 0 0-2.736-.475 7.1 7.1 0 0 0-2.765.505 4.07 4.07 0 0 0-1.81 1.425 3.77 3.77 0 0 0-.642 2.181 3.4 3.4 0 0 0 .418 1.707c.344.52.823.95 1.39 1.217.823.401 1.675.713 2.572.92.957.238 1.645.446 2.093.61.329.088.628.252.867.474.135.178.21.4.195.624 0 .192-.03.37-.12.534a1.2 1.2 0 0 1-.359.415 2.4 2.4 0 0 1-1.39.342 3.03 3.03 0 0 1-1.81-.52 2.4 2.4 0 0 1-.926-1.44l-3.379.505c.075.624.284 1.232.598 1.767.314.549.748 1.024 1.256 1.395 1.017.742 2.347 1.128 4.007 1.113 1.719 0 3.064-.386 4.036-1.143.972-.772 1.465-1.826 1.465-3.161a3.36 3.36 0 0 0-.418-1.737 3.5 3.5 0 0 0-1.33-1.232zm12.976-5.536a6.13 6.13 0 0 0-3.513-.964 6.63 6.63 0 0 0-3.438.875 6.2 6.2 0 0 0-2.347 2.464 7.9 7.9 0 0 0-.853 3.726 6.95 6.95 0 0 0 .868 3.488 6.4 6.4 0 0 0 2.406 2.39 7.1 7.1 0 0 0 3.573.86 6.6 6.6 0 0 0 3.499-.994 5.8 5.8 0 0 0 2.347-2.79l-3.304-.95a2.64 2.64 0 0 1-1.061 1.216 3.1 3.1 0 0 1-1.66.43c-1.031 0-1.809-.326-2.332-.994a3.73 3.73 0 0 1-.733-1.914h9.21c.134-1.574-.015-2.954-.479-4.127a5.64 5.64 0 0 0-2.168-2.716zm-6.503 4.409a3.9 3.9 0 0 1 .643-1.5c.538-.682 1.36-1.024 2.482-1.024.956 0 1.66.297 2.078.876a3.75 3.75 0 0 1 .568 1.633h-5.786zm17.447-5.047c-.39.03-.778.09-1.151.208a4.3 4.3 0 0 0-1.032.445c-.404.238-.763.55-1.046.92a4.3 4.3 0 0 0-.36.55v-2.108h-2.915v13.091h3.334V16.91c0-.46.06-.92.21-1.35a3 3 0 0 1 .612-1.04c.27-.296.613-.549.987-.712a3.7 3.7 0 0 1 1.3-.327c.434-.044.853 0 1.272.12v-3.088a6.3 6.3 0 0 0-1.181-.03zm11.705.045-3.109 9.054-3.11-9.054h-3.304l4.754 13.076h3.334l4.754-13.076h-3.319m14.277 2.018a3.82 3.82 0 0 0-2.048-1.84 8.4 8.4 0 0 0-3.094-.535c-1.585 0-2.826.342-3.738 1.01a5 5 0 0 0-1.869 2.642l2.99.95c.09-.268.225-.535.419-.743a2.1 2.1 0 0 1 .688-.504 3.8 3.8 0 0 1 1.525-.356c.882 0 1.495.178 1.868.549.314.341.509.771.538 1.232l-1.584.237c-.852.119-1.615.252-2.288.386-.583.119-1.166.267-1.734.475a5 5 0 0 0-1.689.965 3.4 3.4 0 0 0-.912 1.32 4.9 4.9 0 0 0-.284 1.663c0 .698.164 1.38.508 1.99a3.7 3.7 0 0 0 1.48 1.439 4.9 4.9 0 0 0 2.377.534 5.9 5.9 0 0 0 2.811-.594 5.7 5.7 0 0 0 1.659-1.38v1.603h2.901v-8c0-.594-.03-1.143-.075-1.618a3.9 3.9 0 0 0-.449-1.47zm-2.795 5.863c-.015.43-.12.846-.299 1.247-.135.252-.299.49-.509.682-.284.297-.627.55-1.001.728a3.4 3.4 0 0 1-1.54.326c-.329 0-.673-.044-.987-.163a1.5 1.5 0 0 1-.643-.49 1.27 1.27 0 0 1-.224-.771c0-.208.045-.416.135-.594.104-.193.254-.357.433-.49a3.3 3.3 0 0 1 .778-.416c.329-.118.643-.207.986-.296.374-.09.867-.193 1.465-.297.389-.075.853-.149 1.406-.238 0 .208-.015.475-.03.757zm14.695-7.332a5.95 5.95 0 0 0-3.274-.89 5.3 5.3 0 0 0-2.96.786V6.148h-3.334v17.44h2.916v-.757c.089.075.179.149.284.208.882.609 1.958.905 3.274.905a5.6 5.6 0 0 0 3.169-.905 6.3 6.3 0 0 0 2.123-2.464c.523-1.098.777-2.3.762-3.517a7.8 7.8 0 0 0-.777-3.548 5.94 5.94 0 0 0-2.168-2.449zm-.882 8.015a3.1 3.1 0 0 1-1.016 1.44 2.75 2.75 0 0 1-1.749.534 2.85 2.85 0 0 1-1.764-.505 2.84 2.84 0 0 1-.957-1.395 7 7 0 0 1-.299-2.078c0-.712.089-1.41.299-2.078.164-.55.478-1.039.927-1.395a2.74 2.74 0 0 1 1.659-.505 2.9 2.9 0 0 1 1.809.534 3.14 3.14 0 0 1 1.046 1.44 5.6 5.6 0 0 1 .344 1.99c0 .682-.104 1.35-.329 2.003zm5.517-10.36h3.304V5.792h-3.304v2.954m0 14.902h3.304V10.512h-3.304v13.136m5.606 0h3.304V5.792h-3.304v17.856m5.711-14.902h3.304V5.792h-3.304v2.954m0 14.902h3.304V10.512h-3.304v13.136m10.45-16.773h-3.304v3.637h-2.243v2.538h2.243v4.987c0 .787 0 1.484.03 2.108.015.638.194 1.261.508 1.825a3.12 3.12 0 0 0 1.555 1.38c.747.298 1.54.46 2.332.46.897.016 1.794-.058 2.676-.222v-2.73c-.703.103-1.42.133-2.138.103a1.8 1.8 0 0 1-.792-.193 1.76 1.76 0 0 1-.598-.55 1.86 1.86 0 0 1-.239-.979c0-.415-.015-.86-.015-1.38v-4.794h3.797v-2.538H162.3V6.875zm15.204 3.637-3.424 8.905-3.438-8.905h-3.424l5.292 12.972-2.152 5.922h3.064l7.415-18.894h-3.333M236.653 20.514V6.28H239v17.351h-2.347L224.11 9.397v14.234h-2.347V6.265h2.347L236.638 20.5z"/><path fill="#fff" fill-rule="evenodd" d="M194.492 6.381a9.3 9.3 0 0 1 4.545 3.755l-1.913 1.173a6.98 6.98 0 0 0-5.95-3.31c-3.857 0-6.982 3.102-6.982 6.932 0 3.829 3.125 6.931 6.982 6.931a7 7 0 0 0 5.98-3.354l1.988 1.187a9.18 9.18 0 0 1-4.455 3.8 9.27 9.27 0 0 1-5.875.326 9.3 9.3 0 0 1-4.904-3.28 9.1 9.1 0 0 1-1.928-5.551 9.1 9.1 0 0 1 1.823-5.566 9.17 9.17 0 0 1 4.829-3.325 9.26 9.26 0 0 1 5.875.267zM214.906 22.783c4.336-2.657 5.651-8.312 2.96-12.646-2.691-4.32-8.387-5.67-12.722-3.013s-5.651 8.312-2.96 12.646c2.691 4.319 8.387 5.67 12.722 3.013m-4.903-.92c3.857 0 6.981-3.103 6.981-6.932s-3.124-6.932-6.981-6.932-6.982 3.103-6.982 6.932 3.125 6.931 6.982 6.931M39.875 5.7c-5.113 0-9.269 4.127-9.269 9.203s4.156 9.203 9.27 9.203c5.112 0 9.268-4.127 9.268-9.203s-4.141-9.202-9.269-9.202m0 14.962c-3.2 0-5.8-2.582-5.8-5.759 0-3.176 2.6-5.759 5.8-5.759s5.8 2.583 5.8 5.76c0 3.175-2.6 5.758-5.8 5.758" clip-rule="evenodd"/><path fill="#ff671d" d="M25.036 12.28c-.048-.43-.096-.956-.289-1.528a9 9 0 0 0-.722-1.862 11.8 11.8 0 0 0-1.3-2.005 5.3 5.3 0 0 0-.722-.764c.385-1.527-.482-2.816-.482-2.816-1.444-.096-2.407.43-2.744.716-.048 0-.096-.048-.193-.096a13 13 0 0 0-.77-.286c-.289-.095-.53-.143-.818-.239-.29-.047-.578-.095-.819-.143h-.144C15.407 1.252 13.577.393 13.577.393c-2.022 1.289-2.407 3.055-2.407 3.055v.096c-.096.047-.24.047-.337.095-.145.048-.289.095-.482.143a3.3 3.3 0 0 0-.481.191c-.289.143-.626.287-.915.43s-.578.334-.866.525c-.049 0-.049-.048-.049-.048-2.84-1.05-5.344.239-5.344.239-.24 2.96 1.108 4.869 1.396 5.203-.048.19-.144.382-.192.573-.193.668-.385 1.384-.482 2.1 0 .096-.048.191-.048.287C.77 14.57 0 17.196 0 17.196c2.167 2.482 4.718 2.625 4.718 2.625a12 12 0 0 0 1.108 1.623c.192.191.385.43.53.62-.771 2.244.096 4.106.096 4.106 2.407.095 3.996-1.05 4.333-1.337.24.096.481.144.722.24.722.19 1.492.285 2.263.333h.915c1.155 1.623 3.13 1.862 3.13 1.862 1.444-1.48 1.492-2.96 1.492-3.294v-.095c.289-.191.578-.43.866-.669a10 10 0 0 0 1.493-1.718c.048-.048.096-.096.096-.191 1.637.096 2.744-1.002 2.744-1.002-.288-1.671-1.251-2.483-1.444-2.626h-.048v-2.005c-.048-.19-.048-.382-.096-.525-.193-.716-.434-1.384-.819-2.005a7.4 7.4 0 0 0-1.348-1.623c-.53-.477-1.107-.811-1.733-1.098-.626-.286-1.252-.43-1.926-.525-.337-.047-.626-.047-.963-.047h-.481c-.145 0-.337.047-.482.047a4.7 4.7 0 0 0-1.781.669 6.6 6.6 0 0 0-1.397 1.145c-.385.43-.674.955-.866 1.48a6.2 6.2 0 0 0-.337 1.575v.764c.048.239.096.525.144.764.145.477.385.907.626 1.289.289.381.626.668.963.907.337.238.722.43 1.107.525.386.095.723.143 1.108.143h.626c.048 0 .096 0 .144-.048.096 0 .145-.048.24-.048.145-.047.29-.095.434-.19.145-.048.24-.144.385-.24.048 0 .048-.047.097-.095a.25.25 0 0 0 .048-.381c-.097-.096-.24-.144-.337-.048-.048 0-.048.047-.097.047-.096.048-.192.096-.336.144-.097.047-.241.047-.338.095h-.77c-.289-.048-.53-.095-.818-.238-.29-.096-.53-.287-.77-.478-.242-.19-.434-.477-.578-.716a2.55 2.55 0 0 1-.338-.907c-.048-.143-.048-.334-.048-.477v-.239c0-.095 0-.19.049-.286a3.76 3.76 0 0 1 1.059-1.957c.144-.144.289-.24.433-.382.145-.096.337-.191.482-.287.192-.095.385-.143.53-.19.192-.048.384-.096.577-.096h.578c.192 0 .433.048.625.095.434.096.819.239 1.204.478.77.43 1.396 1.098 1.83 1.861.192.382.337.812.433 1.242 0 .095.048.238.048.334v.763c0 .144 0 .239-.048.382 0 .096-.048.239-.048.334a.9.9 0 0 1-.096.334 2.7 2.7 0 0 1-.241.669q-.289.645-.722 1.289c-.578.763-1.348 1.432-2.263 1.814a6.8 6.8 0 0 1-1.396.43c-.241.047-.482.047-.723.095h-.337s.049 0 0 0h-.385a8 8 0 0 1-1.54-.287c-.482-.143-1.012-.334-1.445-.573a7.9 7.9 0 0 1-2.407-1.957 4.5 4.5 0 0 1-.819-1.288 9 9 0 0 1-.577-1.433 5.3 5.3 0 0 1-.241-1.48v-.906c0-.239.048-.525.048-.764.048-.239.096-.525.144-.764.049-.239.097-.525.193-.764.144-.477.337-.954.53-1.432.433-.907.962-1.718 1.637-2.339.144-.143.337-.334.53-.477.192-.143.384-.286.577-.382.192-.143.385-.239.578-.334l.289-.143c.048 0 .096-.048.144-.048s.096-.048.144-.048c.193-.095.434-.143.626-.238.049 0 .097-.048.145-.048s.096-.048.144-.048c.096-.048.24-.048.337-.095.048 0 .096-.048.193-.048.048 0 .096 0 .192-.048.049 0 .097 0 .193-.048h.193c.048 0 .096 0 .192-.047.048 0 .145 0 .193-.048h.818s.048 0 0 0h.867q.65 0 1.3.143c.818.143 1.589.43 2.31.764a7.5 7.5 0 0 1 1.879 1.241l.096.096.096.095c.048.048.145.095.193.19.048.096.144.096.192.192.049.095.145.143.193.19.24.24.433.478.626.765a8.6 8.6 0 0 1 .963 1.48c0 .047.048.047.048.095s.048.048.048.095c.048.048.048.096.096.191.049.048.049.096.097.191.048.048.048.096.096.191.096.239.192.43.24.62.097.335.193.621.241.86.049.095.145.19.241.143.096 0 .193-.095.193-.19.192-.574.192-.908.144-1.242"/><path fill="#f8d75a" d="M31.416 53.16q-1.36 0-2.336-.464-.96-.464-1.744-1.392l1.44-1.44q.496.656 1.152 1.024.655.352 1.6.352.848 0 1.344-.336.512-.336.512-.928 0-.512-.288-.832a2.4 2.4 0 0 0-.768-.544 7 7 0 0 0-1.04-.4 19 19 0 0 1-1.136-.432 5.3 5.3 0 0 1-1.04-.592 2.8 2.8 0 0 1-.752-.928q-.288-.576-.288-1.44 0-1.024.496-1.744.495-.72 1.36-1.104.864-.384 1.952-.384 1.152 0 2.08.432t1.52 1.12l-1.44 1.44q-.495-.545-1.024-.8a2.6 2.6 0 0 0-1.168-.256q-.752 0-1.184.288t-.432.832q0 .464.288.752t.752.496q.48.208 1.04.4.576.192 1.136.432.575.24 1.04.624.48.384.768.992.288.592.288 1.472 0 1.568-1.104 2.464t-3.024.896m8.935 0q-1.215 0-2.16-.512a4.06 4.06 0 0 1-1.504-1.44q-.544-.912-.544-2.08 0-1.152.528-2.048a4 4 0 0 1 1.472-1.44 4 4 0 0 1 2.064-.544q1.119 0 1.968.512.864.496 1.344 1.376.495.864.496 1.968 0 .209-.032.432-.015.209-.08.48l-6.496.016v-1.568l5.52-.016-.848.656q-.033-.689-.256-1.152a1.5 1.5 0 0 0-.624-.704q-.4-.256-.992-.256a2 2 0 0 0-1.088.288q-.465.272-.72.784-.24.495-.24 1.184 0 .704.256 1.232.271.512.768.8.496.272 1.152.272.592 0 1.072-.192.48-.208.832-.608l1.232 1.232a3.6 3.6 0 0 1-1.376.992 4.5 4.5 0 0 1-1.744.336m8.928 0a3.3 3.3 0 0 1-1.504-.336 2.9 2.9 0 0 1-1.072-.944 2.57 2.57 0 0 1-.432-1.36v-2.736a2.57 2.57 0 0 1 .432-1.36 3 3 0 0 1 1.072-.96q.673-.352 1.504-.352 1.073 0 1.92.528a3.7 3.7 0 0 1 1.328 1.44q.495.912.496 2.064 0 1.136-.496 2.048a3.7 3.7 0 0 1-1.328 1.44q-.847.528-1.92.528m-.368-1.936q.576 0 1.024-.256.448-.272.688-.736.256-.48.256-1.104 0-.608-.256-1.072-.24-.48-.688-.736a1.93 1.93 0 0 0-1.024-.272q-.56 0-1.008.272-.447.256-.704.736a2.3 2.3 0 0 0-.24 1.072q0 .624.24 1.104.255.465.688.736.448.256 1.024.256m-3.92 5.008v-10.96h2.096v2.032l-.352 1.872.336 1.872v5.184zM55.026 53V42.056h2.096V53zm-1.808-5.888v-1.84h5.712v1.84zm7.464 6.048q-.576 0-.944-.384a1.31 1.31 0 0 1-.368-.944q0-.56.368-.944t.944-.384q.56 0 .928.384.368.383.368.944t-.368.944a1.23 1.23 0 0 1-.928.384m5.251-1.408 4.24-4.432q.45-.48.72-.848.288-.384.416-.72.129-.353.129-.704 0-.704-.465-1.104-.447-.4-1.168-.4-.735 0-1.312.384-.56.384-1.055 1.216l-1.489-1.264q.672-1.136 1.665-1.712 1.008-.592 2.303-.592 1.104 0 1.92.432.833.432 1.28 1.2.449.769.448 1.792 0 .689-.175 1.248a3.7 3.7 0 0 1-.56 1.12 10 10 0 0 1-1.073 1.232l-3.088 3.152zm0 1.248v-1.248l1.856-.64h6.016V53zm8.508-3.968 3.84-7.28h2.4l-3.936 7.28zm0 1.28v-1.28l.8-.624h8.064v1.904zM79.753 53v-7.168h2.144V53zm4.552-3.136V47.96h5.536v1.904zm6.215 1.888 4.24-4.432a10 10 0 0 0 .72-.848 3 3 0 0 0 .416-.72q.129-.353.128-.704 0-.704-.464-1.104-.448-.4-1.168-.4-.736 0-1.312.384-.56.384-1.056 1.216l-1.488-1.264q.672-1.136 1.664-1.712 1.008-.592 2.304-.592 1.104 0 1.92.432.833.432 1.28 1.2.448.769.448 1.792 0 .689-.176 1.248a3.7 3.7 0 0 1-.56 1.12 10 10 0 0 1-1.072 1.232l-3.088 3.152zm0 1.248v-1.248l1.856-.64h6.016V53zm12.108.16q-1.168 0-2.128-.4a4.24 4.24 0 0 1-1.6-1.184l1.44-1.424q.32.48.912.768.608.288 1.328.288.656 0 1.136-.24.496-.24.768-.672a1.9 1.9 0 0 0 .288-1.04q0-.624-.288-1.056a1.75 1.75 0 0 0-.736-.656 2.36 2.36 0 0 0-1.04-.224q-.607 0-1.104.16a3 3 0 0 0-.928.48l.128-1.376a2.8 2.8 0 0 1 .64-.512q.336-.208.752-.304a4 4 0 0 1 1.008-.112q1.232 0 2.048.512.832.496 1.264 1.344.432.832.432 1.84 0 1.104-.544 1.968a3.77 3.77 0 0 1-1.52 1.36q-.96.48-2.256.48m-1.952-5.2-1.04-1.024.512-5.184h1.968l-.576 5.264zm-.192-4.32-.336-1.888h6.176v1.888zm7.236 11.264 1.136-2.112.656-.176q-.112.208-.256.352a.46.46 0 0 1-.336.144q-.4 0-.752-.352a1.2 1.2 0 0 1-.352-.88q0-.577.384-.976.384-.4.96-.4.528 0 .928.4t.4.976q0 .224-.096.544a5 5 0 0 1-.352.784l-1.232 2.272zM114.929 53V41.752h1.52l.656 2.176V53zm7.776 0-6.672-8.64.416-2.608 6.672 8.64zm0 0-.624-2.112v-9.136h2.192V53zm7.001.16q-1.215 0-2.16-.512a4.07 4.07 0 0 1-1.504-1.44q-.543-.912-.544-2.08 0-1.152.528-2.048a4 4 0 0 1 1.472-1.44 4 4 0 0 1 2.064-.544q1.12 0 1.968.512.864.496 1.344 1.376.496.864.496 1.968 0 .209-.032.432-.015.209-.08.48l-6.496.016v-1.568l5.52-.016-.848.656q-.031-.689-.256-1.152a1.5 1.5 0 0 0-.624-.704q-.4-.256-.992-.256-.623 0-1.088.288a1.84 1.84 0 0 0-.72.784q-.24.495-.24 1.184 0 .704.256 1.232.273.512.768.8a2.36 2.36 0 0 0 1.152.272q.592 0 1.072-.192.48-.208.832-.608l1.232 1.232a3.56 3.56 0 0 1-1.376.992 4.5 4.5 0 0 1-1.744.336m6.611-.16-2.896-7.728h2.112l1.888 5.616-.64.016 1.936-5.632h1.52l1.936 5.632-.64-.016 1.888-5.616h2.112L142.653 53h-1.52l-1.952-5.344h.592L137.821 53zm15.977-4.336-4.352-6.912h2.512l3.376 5.536h-1.44l3.376-5.536h2.48l-4.4 6.912zM152.006 53v-5.504h2.192V53zm8.435.16q-1.169 0-2.112-.528a4.2 4.2 0 0 1-1.488-1.456 4 4 0 0 1-.544-2.064q0-1.136.544-2.032a3.93 3.93 0 0 1 1.488-1.44 4.1 4.1 0 0 1 2.096-.544q1.183 0 2.112.544a3.94 3.94 0 0 1 1.488 1.44q.543.896.544 2.032 0 1.136-.544 2.064a4.07 4.07 0 0 1-1.488 1.456q-.929.528-2.096.528m-.016-1.952q.591 0 1.04-.256a1.8 1.8 0 0 0 .704-.736q.255-.48.256-1.088a2.2 2.2 0 0 0-.256-1.072 1.84 1.84 0 0 0-.704-.72 1.97 1.97 0 0 0-1.04-.272q-.577 0-1.024.272-.449.255-.704.72a2.2 2.2 0 0 0-.256 1.072q0 .608.256 1.088.255.465.704.736.447.255 1.024.256M165.598 53v-7.728h2.096V53zm2.096-4.272-.816-.544q.144-1.424.832-2.24.688-.832 1.984-.832.56 0 1.008.192.448.176.816.592l-1.312 1.504a1.1 1.1 0 0 0-.432-.288 1.5 1.5 0 0 0-.56-.096q-.672 0-1.104.432-.416.416-.416 1.28M176.862 53l-2.992-3.984 2.976-3.744h2.416l-3.488 4.224.08-1.024L179.422 53zm-4.928 0V41.432h2.096V53zm16.378.16a6 6 0 0 1-2.288-.432 6 6 0 0 1-1.856-1.232 5.7 5.7 0 0 1-1.216-1.856 6.2 6.2 0 0 1-.416-2.272q0-1.215.416-2.272a5.55 5.55 0 0 1 1.216-1.84 6 6 0 0 1 1.84-1.232 5.8 5.8 0 0 1 2.304-.448q1.344 0 2.368.448a5.8 5.8 0 0 1 1.808 1.2l-1.472 1.472a3.2 3.2 0 0 0-1.136-.8q-.672-.288-1.568-.288-.783 0-1.44.272-.64.256-1.12.768-.48.495-.736 1.2-.255.688-.256 1.52 0 .848.256 1.536t.736 1.2q.48.496 1.12.768.657.272 1.44.272.945 0 1.616-.288a3.1 3.1 0 0 0 1.152-.816l1.472 1.472a5.6 5.6 0 0 1-1.824 1.216q-1.04.432-2.416.432m5.209-.16v-7.728h2.112V53zm1.056-8.976a1.15 1.15 0 0 1-.848-.336 1.2 1.2 0 0 1-.336-.864q0-.495.336-.848.336-.352.848-.352.528 0 .848.352.336.352.336.848 0 .512-.336.864-.32.336-.848.336M198.306 53V42.056h2.096V53zm-1.808-5.888v-1.84h5.712v1.84zm9.003 5.952-3.232-7.792h2.272l2.144 5.952h-.768l2.224-5.952h2.288l-3.44 7.776zm-2.144 3.168 2.352-4.976 1.28 1.792-1.408 3.184z"/></svg>