<svg width="42" height="41" viewBox="0 0 42 41" fill="none" xmlns="http://www.w3.org/2000/svg">
<path d="M31.3106 5.3V3.4C31.3106 2.35066 30.5153 1.5 29.5343 1.5H5.55368C4.57264 1.5 3.77734 2.35066 3.77734 3.4V37.6C3.77734 38.6493 4.57264 39.5 5.55368 39.5H29.5343C30.5153 39.5 31.3106 38.6493 31.3106 37.6" stroke="#FF671D" stroke-width="3" stroke-linecap="round" stroke-linejoin="round"/>
<path d="M32.8086 29C32.8086 28.1716 32.137 27.5 31.3086 27.5C30.4802 27.5 29.8086 28.1716 29.8086 29L32.8086 29ZM32.8086 37.8789L32.8086 29L29.8086 29L29.8086 37.8789L32.8086 37.8789Z" fill="#FF671D"/>
<path d="M2 8.15625H6.44085" stroke="#FF671D" stroke-width="3" stroke-linecap="round" stroke-linejoin="round"/>
<path d="M2 15.5H6.44085" stroke="#FF671D" stroke-width="3" stroke-linecap="round" stroke-linejoin="round"/>
<path d="M2 22.5H6.44085" stroke="#FF671D" stroke-width="3" stroke-linecap="round" stroke-linejoin="round"/>
<path d="M2 29.5H6.44085" stroke="#FF671D" stroke-width="3" stroke-linecap="round" stroke-linejoin="round"/>
<path d="M17.1208 24.8677L36.138 10.5319C36.4804 10.2735 36.9069 10.1652 37.3236 10.2307C37.7403 10.2962 38.113 10.5302 38.3595 10.8812L39.2891 12.2029C39.8023 12.9329 39.6407 13.96 38.9281 14.4972L19.9135 28.8337" stroke="#FF671D" stroke-width="3" stroke-linecap="round" stroke-linejoin="round"/>
<path d="M19.5644 29.0929L13.0073 31.0017L16.7758 25.1278" stroke="#FF671D" stroke-width="3" stroke-linecap="round" stroke-linejoin="round"/>
<path d="M33.4648 12.5469L36.2535 16.5119" stroke="#FF671D" stroke-width="3" stroke-linecap="round" stroke-linejoin="round"/>
</svg>
